<svg width="64" height="64" viewBox="0 0 64 64" fill="none" xmlns="http://www.w3.org/2000/svg">
<path d="M48.0002 36V57.3333M58.6668 46.6667L37.3335 46.6667" stroke="var(--color-14)" stroke-width="3" stroke-linecap="round"/>
<path d="M18.6668 17.3327H44.6668C50.2847 17.3327 53.0936 17.3327 55.1114 18.6809C55.9849 19.2646 56.7349 20.0146 57.3186 20.8881C58.5568 22.7412 58.6571 25.8238 58.6652 30.666M32.0002 17.3327L30.311 13.9544C28.9116 11.1555 27.6328 8.33833 24.5315 7.17537C23.1732 6.66602 21.6216 6.66602 18.5182 6.66602C13.6743 6.66602 11.2523 6.66602 9.435 7.68019C8.13954 8.40314 7.07062 9.47206 6.34767 10.7675C5.3335 12.5848 5.3335 15.0068 5.3335 19.8507V27.9993C5.3335 40.5701 5.3335 46.8555 9.23874 50.7608C12.8575 54.3795 18.52 54.645 29.3335 54.6645" stroke="var(--color-14)" stroke-width="3" stroke-linecap="round"/>
</svg>
