<svg width="20" height="20" viewBox="0 0 20 20" fill="none" xmlns="http://www.w3.org/2000/svg">
<path d="M6.73565 8.36812C6.81309 7.98927 7.35438 7.98927 7.43181 8.36812C7.90686 10.6923 9.7232 12.5087 12.0474 12.9837C12.4262 13.0611 12.4262 13.6024 12.0474 13.6799C9.7232 14.1549 7.90686 15.9713 7.43181 18.2954C7.35438 18.6743 6.81309 18.6743 6.73565 18.2954C6.26061 15.9713 4.44427 14.1549 2.12007 13.6799C1.74123 13.6024 1.74123 13.0611 2.12007 12.9837C4.44427 12.5087 6.26061 10.6923 6.73565 8.36812Z" stroke="var(--icon-color-2)" stroke-width="1.5"/>
<path d="M15.8088 5.53579C15.8143 5.5089 15.8528 5.5089 15.8583 5.53579C16.1435 6.93119 17.234 8.02169 18.6294 8.3069C18.6562 8.31239 18.6562 8.35081 18.6294 8.3563C17.234 8.64151 16.1435 9.73201 15.8583 11.1274C15.8528 11.1543 15.8143 11.1543 15.8088 11.1274C15.5236 9.73201 14.4331 8.64151 13.0377 8.3563C13.0109 8.35081 13.0109 8.31239 13.0377 8.3069C14.4331 8.02169 15.5236 6.93119 15.8088 5.53579Z" stroke="var(--icon-color-2)" stroke-width="1.5"/>
<path d="M9.60969 1.07669C9.69659 0.651521 10.3041 0.651521 10.391 1.07669C10.5829 2.01571 11.3167 2.74954 12.2558 2.94147C12.6809 3.02837 12.6809 3.63586 12.2558 3.72276C11.3167 3.91469 10.5829 4.64852 10.391 5.58754C10.3041 6.01271 9.69659 6.01271 9.60969 5.58754C9.41776 4.64852 8.68392 3.91469 7.7449 3.72276C7.31973 3.63586 7.31973 3.02837 7.7449 2.94147C8.68392 2.74954 9.41776 2.01571 9.60969 1.07669Z" fill="var(--icon-color-2)"/>
</svg>
