<svg width="20" height="20" viewBox="0 0 20 20" fill="none" xmlns="http://www.w3.org/2000/svg">
<path d="M17.4518 2.54742C19.5095 4.60519 17.8414 9.60967 13.7258 13.7252C9.6103 17.8408 4.60584 19.5089 2.54807 17.4512C0.490293 15.3934 2.15845 10.3889 6.27399 6.27335C10.3895 2.1578 15.394 0.489637 17.4518 2.54742ZM2.5479 2.54753C0.490128 4.60531 2.15828 9.60979 6.27383 13.7253C10.3894 17.8409 15.3938 19.5091 17.4516 17.4513C19.5094 15.3935 17.8412 10.389 13.7257 6.27347C9.61014 2.15791 4.60567 0.489753 2.5479 2.54753Z" stroke="var(--color-14)"/>
<path d="M12.0832 9.99935C12.0832 11.1499 11.1504 12.0827 9.99984 12.0827C8.84924 12.0827 7.9165 11.1499 7.9165 9.99935C7.9165 8.84876 8.84924 7.91602 9.99984 7.91602C11.1504 7.91602 12.0832 8.84876 12.0832 9.99935Z" stroke="var(--color-14)"/>
</svg>
