<svg width="20" height="20" viewBox="0 0 20 20" fill="none" xmlns="http://www.w3.org/2000/svg">
<g clip-path="url(#clip0_4038_16703)">
<path d="M17.4523 2.54742C19.51 4.60519 17.8419 9.60967 13.7263 13.7252C9.61079 17.8408 4.60633 19.5089 2.54855 17.4512C0.490781 15.3934 2.15894 10.3889 6.27448 6.27335C10.39 2.1578 15.3945 0.489637 17.4523 2.54742ZM2.54839 2.54753C0.490617 4.60531 2.15877 9.60979 6.27432 13.7253C10.3899 17.8409 15.3943 19.5091 17.4521 17.4513C19.5099 15.3935 17.8417 10.389 13.7262 6.27347C9.61062 2.15791 4.60616 0.489753 2.54839 2.54753Z" stroke="var(--color-14)" stroke-width="1.5"/>
<path d="M12.0837 9.99935C12.0837 11.1499 11.1509 12.0827 10.0003 12.0827C8.84973 12.0827 7.91699 11.1499 7.91699 9.99935C7.91699 8.84876 8.84973 7.91602 10.0003 7.91602C11.1509 7.91602 12.0837 8.84876 12.0837 9.99935Z" stroke="var(--color-14)" stroke-width="1.5"/>
</g>
<defs>
<clipPath id="clip0_4038_16703">
<rect width="20" height="20" fill="white"/>
</clipPath>
</defs>
</svg>
