<svg width="20" height="20" viewBox="0 0 20 20" fill="none" xmlns="http://www.w3.org/2000/svg">
<g clip-path="url(#clip0_6280_76560)">
<path d="M16.3018 5.83333C16.4923 4.74603 15.6556 3.75 14.5517 3.75H5.44855C4.34468 3.75 3.50801 4.74603 3.69853 5.83333" stroke="var(--icon-color-2)" stroke-width="1.5"/>
<path d="M14.5833 3.74935C14.6069 3.53345 14.6187 3.42547 14.6189 3.3363C14.6208 2.48328 13.9783 1.76655 13.1301 1.67553C13.0415 1.66602 12.9329 1.66602 12.7156 1.66602H7.28416C7.06695 1.66602 6.95835 1.66602 6.86969 1.67553C6.02153 1.76655 5.37901 2.48328 5.38086 3.3363C5.38106 3.42548 5.39288 3.53343 5.41653 3.74935" stroke="var(--icon-color-2)" stroke-width="1.5"/>
<path d="M10.4671 10.5832L10.1142 11.245H10.1142L10.4671 10.5832ZM11.2024 10.9754L11.5554 10.3136H11.5554L11.2024 10.9754ZM12.0329 9.41826L12.3858 8.7565L12.3858 8.7565L12.0329 9.41826ZM11.2976 9.02611L11.6505 8.36434L11.6505 8.36434L11.2976 9.02611ZM10.0015 9.67248L10.7502 9.71791V9.71791L10.0015 9.67248ZM11.1802 8.96526L10.868 9.64718L10.868 9.64719L11.1802 8.96526ZM12.4996 10.1409L13.2492 10.1171V10.1171L12.4996 10.1409ZM12.082 9.44494L12.4558 8.79473L12.4558 8.79472L12.082 9.44494ZM11.3198 11.0362L11.632 10.3543V10.3543L11.3198 11.0362ZM12.4985 10.329L11.7498 10.2836V10.2836L12.4985 10.329ZM10.418 10.5565L10.0442 11.2067L10.0442 11.2067L10.418 10.5565ZM10.0004 9.86055L9.2508 9.88439V9.88439L10.0004 9.86055ZM10 13.7507H9.25C9.25 14.0269 9.02614 14.2507 8.75 14.2507V15.0007V15.7507C9.85457 15.7507 10.75 14.8553 10.75 13.7507H10ZM8.75 15.0007V14.2507C8.47386 14.2507 8.25 14.0269 8.25 13.7507H7.5H6.75C6.75 14.8553 7.64543 15.7507 8.75 15.7507V15.0007ZM7.5 13.7507H8.25C8.25 13.4746 8.47386 13.2507 8.75 13.2507V12.5007V11.7507C7.64543 11.7507 6.75 12.6462 6.75 13.7507H7.5ZM8.75 12.5007V13.2507C9.02614 13.2507 9.25 13.4746 9.25 13.7507H10H10.75C10.75 12.6462 9.85457 11.7507 8.75 11.7507V12.5007ZM10 13.7507H10.75V10.0007H10H9.25V13.7507H10ZM10.4671 10.5832L10.1142 11.245L10.8495 11.6371L11.2024 10.9754L11.5554 10.3136L10.8201 9.92144L10.4671 10.5832ZM12.0329 9.41826L12.3858 8.7565L11.6505 8.36434L11.2976 9.02611L10.9446 9.68787L11.6799 10.08L12.0329 9.41826ZM10 9.80465H10.75C10.75 9.76758 10.75 9.74487 10.7502 9.72812C10.7503 9.71079 10.7506 9.71093 10.7502 9.71791L10.0015 9.67248L9.25291 9.62705C9.24962 9.68115 9.25 9.7468 9.25 9.80465H10ZM11.2976 9.02611L11.6505 8.36434C11.5995 8.33712 11.5417 8.30589 11.4924 8.28333L11.1802 8.96526L10.868 9.64719C10.8617 9.64427 10.8617 9.64398 10.877 9.652C10.8919 9.65975 10.9119 9.67043 10.9446 9.68787L11.2976 9.02611ZM10.0015 9.67248L10.7502 9.71791C10.7537 9.65948 10.8148 9.62282 10.868 9.64718L11.1802 8.96526L11.4924 8.28333C10.4812 7.82034 9.32028 8.51688 9.25291 9.62705L10.0015 9.67248ZM12.5 10.1968H13.25C13.25 10.1734 13.2501 10.1451 13.2492 10.1171L12.4996 10.1409L11.75 10.1647C11.7499 10.1626 11.7499 10.1625 11.75 10.1677C11.75 10.1737 11.75 10.1817 11.75 10.1968H12.5ZM12.0329 9.41826L11.6799 10.08C11.6932 10.0871 11.7004 10.0909 11.7056 10.0938C11.7102 10.0963 11.7101 10.0962 11.7082 10.0952L12.082 9.44494L12.4558 8.79472C12.4315 8.78077 12.4065 8.76753 12.3858 8.7565L12.0329 9.41826ZM12.4996 10.1409L13.2492 10.1171C13.2318 9.56858 12.9315 9.06823 12.4558 8.79473L12.082 9.44494L11.7082 10.0952C11.7332 10.1095 11.749 10.1359 11.75 10.1648L12.4996 10.1409ZM11.2024 10.9754L10.8495 11.6371C10.9005 11.6643 10.9583 11.6956 11.0076 11.7181L11.3198 11.0362L11.632 10.3543C11.6383 10.3572 11.6383 10.3575 11.623 10.3495C11.6081 10.3417 11.5881 10.331 11.5554 10.3136L11.2024 10.9754ZM12.5 10.1968H11.75C11.75 10.2339 11.75 10.2566 11.7498 10.2733C11.7497 10.2907 11.7494 10.2905 11.7498 10.2836L12.4985 10.329L13.2471 10.3744C13.2504 10.3203 13.25 10.2547 13.25 10.1968H12.5ZM11.3198 11.0362L11.0076 11.7181C12.0188 12.1811 13.1797 11.4846 13.2471 10.3744L12.4985 10.329L11.7498 10.2836C11.7463 10.342 11.6852 10.3786 11.632 10.3543L11.3198 11.0362ZM10.4671 10.5832L10.8201 9.92144C10.8068 9.91434 10.7997 9.91054 10.7944 9.90769C10.7898 9.9052 10.7899 9.90522 10.7918 9.90631L10.418 10.5565L10.0442 11.2067C10.0685 11.2207 10.0935 11.234 10.1142 11.245L10.4671 10.5832ZM10 9.80465H9.25C9.25 9.82807 9.24991 9.8564 9.2508 9.88439L10.0004 9.86055L10.75 9.83671C10.7501 9.8389 10.7501 9.83902 10.75 9.8338C10.75 9.8278 10.75 9.81974 10.75 9.80465H10ZM10.418 10.5565L10.7918 9.90631C10.7668 9.89192 10.751 9.86558 10.75 9.83671L10.0004 9.86055L9.2508 9.88439C9.26824 10.4329 9.56845 10.9332 10.0442 11.2067L10.418 10.5565Z" fill="var(--icon-color-2)"/>
<path d="M1.98634 11.4948C1.61465 8.85851 1.42881 7.54036 2.21868 6.68717C3.00855 5.83398 4.41473 5.83398 7.22708 5.83398H12.7731C15.5854 5.83398 16.9916 5.83398 17.7815 6.68717C18.5714 7.54036 18.3855 8.85851 18.0138 11.4948L17.6613 13.9948C17.3699 16.0622 17.2241 17.0959 16.4765 17.7149C15.7288 18.334 14.6261 18.334 12.4206 18.334H7.57955C5.37409 18.334 4.27135 18.334 3.5237 17.7149C2.77604 17.0959 2.6303 16.0622 2.33882 13.9948L1.98634 11.4948Z" stroke="var(--icon-color-2)" stroke-width="1.5"/>
</g>
<defs>
<clipPath id="clip0_6280_76560">
<rect width="20" height="20" fill="white"/>
</clipPath>
</defs>
</svg>
