<svg width="20" height="20" viewBox="0 0 20 20" fill="none" xmlns="http://www.w3.org/2000/svg">
<path d="M18.333 9.16667C18.333 6.02397 18.333 4.45262 17.3567 3.47631C16.3804 2.5 14.809 2.5 11.6663 2.5H8.33301C5.19031 2.5 3.61896 2.5 2.64265 3.47631C1.66634 4.45262 1.66634 6.02397 1.66634 9.16667V10.8333C1.66634 13.976 1.66634 15.5474 2.64265 16.5237C3.61896 17.5 5.19031 17.5 8.33301 17.5H11.6663C14.809 17.5 16.3804 17.5 17.3567 16.5237C18.333 15.5474 18.333 13.976 18.333 10.8333V9.16667Z" stroke="var(--bar-icon-color)" stroke-width="1.5"/>
<path d="M7.5 17.5L7.5 2.5" stroke="var(--bar-icon-color)" stroke-width="1.5" stroke-linecap="round"/>
</svg>
