<svg width="32" height="32" viewBox="0 0 32 32" fill="none" xmlns="http://www.w3.org/2000/svg">
<path d="M9.22981 5.07363C9.62395 3.42822 11.9356 3.42822 12.3298 5.07363L13.4142 9.6011C13.555 10.1886 14.0081 10.6472 14.5884 10.7897L19.0607 11.8875C20.6861 12.2865 20.6861 14.6267 19.0607 15.0257L14.5884 16.1235C14.0081 16.266 13.555 16.7246 13.4142 17.3121L12.3298 21.8396C11.9356 23.485 9.62395 23.485 9.22981 21.8396L8.14533 17.3121C8.00461 16.7246 7.55151 16.266 6.9712 16.1235L2.49883 15.0257C0.873438 14.6267 0.873436 12.2865 2.49883 11.8875L6.9712 10.7897C7.55151 10.6472 8.00461 10.1886 8.14533 9.6011L9.22981 5.07363Z" fill="var(--success-color-3)"/>
<path d="M9.22981 5.07363C9.62395 3.42822 11.9356 3.42822 12.3298 5.07363L13.4142 9.6011C13.555 10.1886 14.0081 10.6472 14.5884 10.7897L19.0607 11.8875C20.6861 12.2865 20.6861 14.6267 19.0607 15.0257L14.5884 16.1235C14.0081 16.266 13.555 16.7246 13.4142 17.3121L12.3298 21.8396C11.9356 23.485 9.62395 23.485 9.22981 21.8396L8.14533 17.3121C8.00461 16.7246 7.55151 16.266 6.9712 16.1235L2.49883 15.0257C0.873438 14.6267 0.873436 12.2865 2.49883 11.8875L6.9712 10.7897C7.55151 10.6472 8.00461 10.1886 8.14533 9.6011L9.22981 5.07363Z" fill="var(--success-color-3)"/>
<path d="M22.3972 19.1344C22.6298 18.1662 23.9944 18.1662 24.227 19.1344L24.8672 21.7985C24.9502 22.1442 25.2177 22.4141 25.5602 22.4979L28.2002 23.1439C29.1596 23.3787 29.1596 24.7557 28.2002 24.9905L25.5602 25.6365C25.2177 25.7203 24.9502 25.9902 24.8672 26.3359L24.227 29C23.9944 29.9682 22.6298 29.9682 22.3972 29L21.7571 26.3359C21.674 25.9902 21.4065 25.7203 21.064 25.6365L18.4241 24.9905C17.4646 24.7557 17.4646 23.3787 18.4241 23.1439L21.064 22.4979C21.4065 22.4141 21.674 22.1442 21.7571 21.7985L22.3972 19.1344Z" fill="var(--success-color-3)"/>
<path d="M22.3972 19.1344C22.6298 18.1662 23.9944 18.1662 24.227 19.1344L24.8672 21.7985C24.9502 22.1442 25.2177 22.4141 25.5602 22.4979L28.2002 23.1439C29.1596 23.3787 29.1596 24.7557 28.2002 24.9905L25.5602 25.6365C25.2177 25.7203 24.9502 25.9902 24.8672 26.3359L24.227 29C23.9944 29.9682 22.6298 29.9682 22.3972 29L21.7571 26.3359C21.674 25.9902 21.4065 25.7203 21.064 25.6365L18.4241 24.9905C17.4646 24.7557 17.4646 23.3787 18.4241 23.1439L21.064 22.4979C21.4065 22.4141 21.674 22.1442 21.7571 21.7985L22.3972 19.1344Z" fill="var(--success-color-3)"/>
<path d="M24.9137 2.56664C25.0663 1.93125 25.9618 1.93125 26.1145 2.56664L26.5346 4.31495C26.5891 4.5418 26.7646 4.71893 26.9894 4.77393L28.7218 5.19787C29.3515 5.35195 29.3515 6.25561 28.7218 6.40969L26.9894 6.83363C26.7646 6.88864 26.5891 7.06576 26.5346 7.29261L26.1145 9.04092C25.9618 9.67631 25.0663 9.67631 24.9137 9.04092L24.4936 7.29261C24.4391 7.06576 24.2635 6.88864 24.0387 6.83363L22.3063 6.40969C21.6767 6.25561 21.6767 5.35195 22.3063 5.19787L24.0387 4.77393C24.2635 4.71893 24.4391 4.5418 24.4936 4.31495L24.9137 2.56664Z" fill="var(--success-color-3)"/>
<path d="M24.9137 2.56664C25.0663 1.93125 25.9618 1.93125 26.1145 2.56664L26.5346 4.31495C26.5891 4.5418 26.7646 4.71893 26.9894 4.77393L28.7218 5.19787C29.3515 5.35195 29.3515 6.25561 28.7218 6.40969L26.9894 6.83363C26.7646 6.88864 26.5891 7.06576 26.5346 7.29261L26.1145 9.04092C25.9618 9.67631 25.0663 9.67631 24.9137 9.04092L24.4936 7.29261C24.4391 7.06576 24.2635 6.88864 24.0387 6.83363L22.3063 6.40969C21.6767 6.25561 21.6767 5.35195 22.3063 5.19787L24.0387 4.77393C24.2635 4.71893 24.4391 4.5418 24.4936 4.31495L24.9137 2.56664Z" fill="var(--success-color-3)"/>
<path fill-rule="evenodd" clip-rule="evenodd" d="M25.5141 2.87682L25.1712 4.30376C25.0341 4.87413 24.5928 5.31946 24.0276 5.45777L22.6137 5.80378L24.0276 6.14979C24.5928 6.2881 25.0341 6.73343 25.1712 7.3038L25.5141 8.73074L25.8569 7.3038C25.994 6.73343 26.4353 6.2881 27.0005 6.14979L28.4145 5.80378L27.0005 5.45777C26.4353 5.31946 25.994 4.87413 25.8569 4.30376L25.5141 2.87682ZM26.2003 2.10419C26.0258 1.37803 25.0024 1.37803 24.8279 2.10419L24.3478 4.10226C24.2855 4.36152 24.0849 4.56395 23.828 4.62681L21.848 5.11132C21.1285 5.2874 21.1285 6.32016 21.848 6.49624L23.828 6.98075C24.0849 7.04362 24.2855 7.24604 24.3478 7.5053L24.8279 9.50337C25.0024 10.2295 26.0258 10.2295 26.2003 9.50337L26.6804 7.5053C26.7427 7.24604 26.9432 7.04362 27.2002 6.98075L29.1801 6.49624C29.8997 6.32016 29.8997 5.2874 29.1801 5.11132L27.2002 4.62681C26.9432 4.56395 26.7427 4.36152 26.6804 4.10226L26.2003 2.10419Z" fill="var(--success-color-3)"/>
<path fill-rule="evenodd" clip-rule="evenodd" d="M25.5141 2.87682L25.1712 4.30376C25.0341 4.87413 24.5928 5.31946 24.0276 5.45777L22.6137 5.80378L24.0276 6.14979C24.5928 6.2881 25.0341 6.73343 25.1712 7.3038L25.5141 8.73074L25.8569 7.3038C25.994 6.73343 26.4353 6.2881 27.0005 6.14979L28.4145 5.80378L27.0005 5.45777C26.4353 5.31946 25.994 4.87413 25.8569 4.30376L25.5141 2.87682ZM26.2003 2.10419C26.0258 1.37803 25.0024 1.37803 24.8279 2.10419L24.3478 4.10226C24.2855 4.36152 24.0849 4.56395 23.828 4.62681L21.848 5.11132C21.1285 5.2874 21.1285 6.32016 21.848 6.49624L23.828 6.98075C24.0849 7.04362 24.2855 7.24604 24.3478 7.5053L24.8279 9.50337C25.0024 10.2295 26.0258 10.2295 26.2003 9.50337L26.6804 7.5053C26.7427 7.24604 26.9432 7.04362 27.2002 6.98075L29.1801 6.49624C29.8997 6.32016 29.8997 5.2874 29.1801 5.11132L27.2002 4.62681C26.9432 4.56395 26.7427 4.36152 26.6804 4.10226L26.2003 2.10419Z" fill="var(--success-color-3)"/>
</svg>
