<svg width="32" height="32" viewBox="0 0 32 32" fill="none" xmlns="http://www.w3.org/2000/svg">
<path d="M24.6053 4.00707C24.758 3.37168 25.6534 3.37168 25.8061 4.00707L26.2262 5.75538C26.2807 5.98223 26.4562 6.15936 26.681 6.21436L28.4135 6.6383C29.0431 6.79238 29.0431 7.69604 28.4135 7.85012L26.681 8.27406C26.4562 8.32906 26.2807 8.50619 26.2262 8.73304L25.8061 10.4814C25.6534 11.1167 24.758 11.1167 24.6053 10.4814L24.1852 8.73304C24.1307 8.50619 23.9552 8.32906 23.7304 8.27406L21.9979 7.85012C21.3683 7.69604 21.3683 6.79238 21.9979 6.6383L23.7304 6.21436C23.9552 6.15936 24.1307 5.98223 24.1852 5.75538L24.6053 4.00707Z" fill="var(--success-color-3)"/>
<path d="M24.6053 4.00707C24.758 3.37168 25.6534 3.37168 25.8061 4.00707L26.2262 5.75538C26.2807 5.98223 26.4562 6.15936 26.681 6.21436L28.4135 6.6383C29.0431 6.79238 29.0431 7.69604 28.4135 7.85012L26.681 8.27406C26.4562 8.32906 26.2807 8.50619 26.2262 8.73304L25.8061 10.4814C25.6534 11.1167 24.758 11.1167 24.6053 10.4814L24.1852 8.73304C24.1307 8.50619 23.9552 8.32906 23.7304 8.27406L21.9979 7.85012C21.3683 7.69604 21.3683 6.79238 21.9979 6.6383L23.7304 6.21436C23.9552 6.15936 24.1307 5.98223 24.1852 5.75538L24.6053 4.00707Z" fill="var(--success-color-3)"/>
<path fill-rule="evenodd" clip-rule="evenodd" d="M25.2057 4.31725L24.8628 5.74419C24.7258 6.31456 24.2845 6.75989 23.7193 6.8982L22.3053 7.24421L23.7193 7.59022C24.2845 7.72853 24.7258 8.17386 24.8628 8.74423L25.2057 10.1712L25.5486 8.74423C25.6856 8.17386 26.1269 7.72853 26.6921 7.59022L28.1061 7.24421L26.6921 6.8982C26.1269 6.75989 25.6856 6.31456 25.5486 5.74419L25.2057 4.31725ZM25.8919 3.54462C25.7174 2.81846 24.694 2.81846 24.5195 3.54462L24.0394 5.54269C23.9771 5.80195 23.7765 6.00438 23.5196 6.06724L21.5397 6.55175C20.8201 6.72783 20.8201 7.76059 21.5397 7.93667L23.5196 8.42118C23.7765 8.48405 23.9771 8.68647 24.0394 8.94573L24.5195 10.9438C24.694 11.67 25.7174 11.67 25.8919 10.9438L26.372 8.94573C26.4343 8.68647 26.6349 8.48405 26.8918 8.42118L28.8718 7.93667C29.5913 7.76059 29.5913 6.72783 28.8718 6.55175L26.8918 6.06724C26.6349 6.00438 26.4343 5.80195 26.372 5.54269L25.8919 3.54462Z" fill="var(--success-color-3)"/>
<path fill-rule="evenodd" clip-rule="evenodd" d="M25.2057 4.31725L24.8628 5.74419C24.7258 6.31456 24.2845 6.75989 23.7193 6.8982L22.3053 7.24421L23.7193 7.59022C24.2845 7.72853 24.7258 8.17386 24.8628 8.74423L25.2057 10.1712L25.5486 8.74423C25.6856 8.17386 26.1269 7.72853 26.6921 7.59022L28.1061 7.24421L26.6921 6.8982C26.1269 6.75989 25.6856 6.31456 25.5486 5.74419L25.2057 4.31725ZM25.8919 3.54462C25.7174 2.81846 24.694 2.81846 24.5195 3.54462L24.0394 5.54269C23.9771 5.80195 23.7765 6.00438 23.5196 6.06724L21.5397 6.55175C20.8201 6.72783 20.8201 7.76059 21.5397 7.93667L23.5196 8.42118C23.7765 8.48405 23.9771 8.68647 24.0394 8.94573L24.5195 10.9438C24.694 11.67 25.7174 11.67 25.8919 10.9438L26.372 8.94573C26.4343 8.68647 26.6349 8.48405 26.8918 8.42118L28.8718 7.93667C29.5913 7.76059 29.5913 6.72783 28.8718 6.55175L26.8918 6.06724C26.6349 6.00438 26.4343 5.80195 26.372 5.54269L25.8919 3.54462Z" fill="var(--success-color-3)"/>
<path d="M12.2053 8.41153C12.6617 6.52949 15.3383 6.52949 15.7947 8.41152L17.0504 13.5901C17.2134 14.262 17.738 14.7866 18.4099 14.9496L23.5885 16.2053C25.4705 16.6617 25.4705 19.3383 23.5885 19.7947L18.4099 21.0504C17.738 21.2134 17.2134 21.738 17.0504 22.4099L15.7947 27.5885C15.3383 29.4705 12.6617 29.4705 12.2053 27.5885L10.9496 22.4099C10.7866 21.738 10.262 21.2134 9.59006 21.0504L4.41153 19.7947C2.52949 19.3383 2.52949 16.6617 4.41152 16.2053L9.59006 14.9496C10.262 14.7866 10.7866 14.262 10.9496 13.5901L12.2053 8.41153Z" fill="var(--success-color-3)"/>
<path d="M12.2053 8.41153C12.6617 6.52949 15.3383 6.52949 15.7947 8.41152L17.0504 13.5901C17.2134 14.262 17.738 14.7866 18.4099 14.9496L23.5885 16.2053C25.4705 16.6617 25.4705 19.3383 23.5885 19.7947L18.4099 21.0504C17.738 21.2134 17.2134 21.738 17.0504 22.4099L15.7947 27.5885C15.3383 29.4705 12.6617 29.4705 12.2053 27.5885L10.9496 22.4099C10.7866 21.738 10.262 21.2134 9.59006 21.0504L4.41153 19.7947C2.52949 19.3383 2.52949 16.6617 4.41152 16.2053L9.59006 14.9496C10.262 14.7866 10.7866 14.262 10.9496 13.5901L12.2053 8.41153Z" fill="var(--success-color-3)"/>
</svg>
