<svg width="32" height="32" viewBox="0 0 32 32" fill="none" xmlns="http://www.w3.org/2000/svg">
<path d="M10.3355 12.3594C10.8921 12.1738 11.1703 12.0811 11.4014 11.923C11.6061 11.783 11.783 11.6061 11.923 11.4014C12.0811 11.1703 12.1738 10.8921 12.3594 10.3355L14.4265 4.13414C14.6522 3.45684 15.2861 3 16 3C16.7139 3 17.3478 3.45684 17.5735 4.13414L19.6407 10.3355C19.8262 10.8921 19.9189 11.1703 20.077 11.4014C20.217 11.6061 20.3939 11.783 20.5986 11.923C20.8297 12.0811 21.108 12.1738 21.6645 12.3594L27.8659 14.4265C28.5432 14.6522 29 15.2861 29 16C29 16.7139 28.5432 17.3478 27.8659 17.5735L21.6645 19.6406C21.1079 19.8262 20.8297 19.9189 20.5986 20.077C20.3939 20.217 20.217 20.3939 20.077 20.5986C19.9189 20.8297 19.8262 21.1079 19.6406 21.6645L17.5735 27.8659C17.3478 28.5432 16.7139 29 16 29C15.2861 29 14.6522 28.5432 14.4265 27.8659L12.3594 21.6645C12.1738 21.108 12.0811 20.8297 11.923 20.5986C11.783 20.3939 11.6061 20.217 11.4014 20.077C11.1703 19.9189 10.8921 19.8262 10.3355 19.6406L4.13413 17.5735C3.45684 17.3478 3 16.7139 3 16C3 15.2861 3.45684 14.6522 4.13414 14.4265L10.3355 12.3594Z" fill="var(--success-color-3)"/>
<path d="M10.3355 12.3594C10.8921 12.1738 11.1703 12.0811 11.4014 11.923C11.6061 11.783 11.783 11.6061 11.923 11.4014C12.0811 11.1703 12.1738 10.8921 12.3594 10.3355L14.4265 4.13414C14.6522 3.45684 15.2861 3 16 3C16.7139 3 17.3478 3.45684 17.5735 4.13414L19.6407 10.3355C19.8262 10.8921 19.9189 11.1703 20.077 11.4014C20.217 11.6061 20.3939 11.783 20.5986 11.923C20.8297 12.0811 21.108 12.1738 21.6645 12.3594L27.8659 14.4265C28.5432 14.6522 29 15.2861 29 16C29 16.7139 28.5432 17.3478 27.8659 17.5735L21.6645 19.6406C21.1079 19.8262 20.8297 19.9189 20.5986 20.077C20.3939 20.217 20.217 20.3939 20.077 20.5986C19.9189 20.8297 19.8262 21.1079 19.6406 21.6645L17.5735 27.8659C17.3478 28.5432 16.7139 29 16 29C15.2861 29 14.6522 28.5432 14.4265 27.8659L12.3594 21.6645C12.1738 21.108 12.0811 20.8297 11.923 20.5986C11.783 20.3939 11.6061 20.217 11.4014 20.077C11.1703 19.9189 10.8921 19.8262 10.3355 19.6406L4.13413 17.5735C3.45684 17.3478 3 16.7139 3 16C3 15.2861 3.45684 14.6522 4.13414 14.4265L10.3355 12.3594Z" fill="var(--success-color-3)"/>
</svg>
