<svg width="16" height="16" viewBox="0 0 16 16" fill="none" xmlns="http://www.w3.org/2000/svg">
<g clip-path="url(#clip0_4297_80441)">
<path d="M10.6592 3.30078L11.1898 2.77072V2.77072L10.6592 3.30078ZM12.7141 5.35773L12.1835 5.88779V5.88779L12.7141 5.35773ZM5.82526 12.9533L5.29466 13.4834H5.29466L5.82526 12.9533ZM3.0808 10.2061L3.6114 9.676V9.676L3.0808 10.2061ZM11.711 9.99685L11.4472 9.29477V9.29477L11.711 9.99685ZM10.4329 10.4771L10.6967 11.1791L10.6967 11.1791L10.4329 10.4771ZM5.55447 5.5885L4.85025 5.33048V5.33048L5.55447 5.5885ZM6.01744 4.32489L6.72166 4.58291V4.58291L6.01744 4.32489ZM3.89637 7.11629L4.0957 7.83932H4.0957L3.89637 7.11629ZM4.86745 6.7574L4.42924 6.14874L4.42924 6.14874L4.86745 6.7574ZM5.11689 6.52757L5.68772 7.01404L5.68772 7.01404L5.11689 6.52757ZM9.50035 10.921L9.99131 11.4879L9.99132 11.4879L9.50035 10.921ZM8.92006 12.1348L8.19693 11.9358L8.19693 11.9358L8.92006 12.1348ZM9.27761 11.165L8.66824 10.7278L8.66824 10.7278L9.27761 11.165ZM1.81198 8.50413L1.062 8.50887V8.50887L1.81198 8.50413ZM1.95331 7.9687L1.30339 7.5944H1.30339L1.95331 7.9687ZM7.5365 14.2294L7.53763 13.4794H7.53763L7.5365 14.2294ZM8.06186 14.0904L7.69012 13.439L7.69012 13.439L8.06186 14.0904ZM7.79784 1.35802L7.95943 2.09041V2.09041L7.79784 1.35802ZM0.802408 14.1373C0.509664 14.4303 0.509905 14.9052 0.802948 15.1979C1.09599 15.4907 1.57086 15.4904 1.86361 15.1974L1.33301 14.6673L0.802408 14.1373ZM4.96576 12.0921C5.2585 11.799 5.25826 11.3242 4.96522 11.0314C4.67218 10.7387 4.1973 10.7389 3.90456 11.0319L4.43516 11.562L4.96576 12.0921ZM10.6592 3.30078L10.1286 3.83084L12.1835 5.88779L12.7141 5.35773L13.2447 4.82767L11.1898 2.77072L10.6592 3.30078ZM5.82526 12.9533L6.35586 12.4233L3.6114 9.676L3.0808 10.2061L2.5502 10.7361L5.29466 13.4834L5.82526 12.9533ZM11.711 9.99685L11.4472 9.29477L10.1691 9.77498L10.4329 10.4771L10.6967 11.1791L11.9748 10.6989L11.711 9.99685ZM5.55447 5.5885L6.25869 5.84652L6.72166 4.58291L6.01744 4.32489L5.31322 4.06687L4.85025 5.33048L5.55447 5.5885ZM3.89637 7.11629L4.0957 7.83932C4.55186 7.71355 4.96558 7.61091 5.30566 7.36607L4.86745 6.7574L4.42924 6.14874C4.35892 6.19937 4.26204 6.23749 3.69703 6.39327L3.89637 7.11629ZM5.55447 5.5885L4.85025 5.33048C4.64848 5.88119 4.60242 5.97496 4.54606 6.0411L5.11689 6.52757L5.68772 7.01404C5.95945 6.69518 6.09575 6.29124 6.25869 5.84652L5.55447 5.5885ZM4.86745 6.7574L5.30566 7.36607C5.44671 7.26452 5.57499 7.14632 5.68772 7.01404L5.11689 6.52757L4.54606 6.0411C4.51157 6.08157 4.47235 6.11771 4.42924 6.14874L4.86745 6.7574ZM10.4329 10.4771L10.1691 9.77498C9.72727 9.94098 9.32556 10.0802 9.00938 10.354L9.50035 10.921L9.99132 11.4879C10.0568 11.4313 10.1495 11.3847 10.6967 11.1791L10.4329 10.4771ZM8.92006 12.1348L9.64318 12.3337C9.79835 11.7698 9.83637 11.6728 9.88698 11.6023L9.27761 11.165L8.66824 10.7278C8.42447 11.0675 8.32225 11.4803 8.19693 11.9358L8.92006 12.1348ZM9.50035 10.921L9.00938 10.354C8.88142 10.4648 8.76692 10.5903 8.66824 10.7278L9.27761 11.165L9.88697 11.6023C9.91717 11.5602 9.9522 11.5218 9.99131 11.4879L9.50035 10.921ZM3.0808 10.2061L3.6114 9.676C3.17627 9.24043 2.89637 8.95862 2.71772 8.73416C2.53808 8.50847 2.56172 8.46042 2.56197 8.49939L1.81198 8.50413L1.062 8.50887C1.06499 8.98242 1.30101 9.36288 1.54408 9.66828C1.78814 9.97492 2.14128 10.3268 2.5502 10.7361L3.0808 10.2061ZM3.89637 7.11629L3.69703 6.39327C3.13951 6.54697 2.65877 6.67832 2.29518 6.82428C1.93303 6.96967 1.53981 7.1839 1.30339 7.5944L1.95331 7.9687L2.60323 8.34301C2.58365 8.37702 2.58654 8.32368 2.85401 8.2163C3.12004 8.1095 3.50241 8.00289 4.0957 7.83932L3.89637 7.11629ZM1.81198 8.50413L2.56197 8.49939C2.56162 8.44447 2.57588 8.3905 2.60323 8.34301L1.95331 7.9687L1.30339 7.5944C1.14327 7.87243 1.05997 8.18805 1.062 8.50887L1.81198 8.50413ZM5.82526 12.9533L5.29466 13.4834C5.70617 13.8953 6.05991 14.2511 6.36823 14.4966C6.67529 14.7412 7.05843 14.9787 7.53538 14.9794L7.5365 14.2294L7.53763 13.4794C7.57745 13.4795 7.52968 13.504 7.30275 13.3233C7.07708 13.1436 6.79376 12.8616 6.35586 12.4233L5.82526 12.9533ZM8.92006 12.1348L8.19693 11.9358C8.0325 12.5334 7.92527 12.9188 7.81773 13.1867C7.70957 13.4561 7.65576 13.4587 7.69012 13.439L8.06186 14.0904L8.43359 14.7418C8.84769 14.5055 9.06351 14.1098 9.20977 13.7455C9.35664 13.3795 9.48865 12.8954 9.64319 12.3337L8.92006 12.1348ZM7.5365 14.2294L7.53537 14.9794C7.85038 14.9799 8.16001 14.898 8.43359 14.7418L8.06186 14.0904L7.69012 13.439C7.64362 13.4656 7.59106 13.4795 7.53763 13.4794L7.5365 14.2294ZM12.7141 5.35773L12.1835 5.88779C12.8983 6.60335 13.3726 7.08094 13.66 7.46868C13.9394 7.84575 13.9236 7.98299 13.9101 8.04542L14.6431 8.20393L15.3762 8.36244C15.5254 7.67251 15.2423 7.0846 14.8651 6.57563C14.4959 6.07733 13.9243 5.508 13.2447 4.82767L12.7141 5.35773ZM11.711 9.99685L11.9748 10.6989C12.8746 10.3608 13.6302 10.079 14.1724 9.77816C14.7262 9.47078 15.227 9.05251 15.3762 8.36244L14.6431 8.20393L13.9101 8.04542C13.8966 8.10773 13.8545 8.23906 13.4444 8.46662C13.0227 8.70068 12.3937 8.93915 11.4472 9.29477L11.711 9.99685ZM10.6592 3.30078L11.1898 2.77072C10.5051 2.08532 9.9325 1.50929 9.43174 1.13751C8.92075 0.75814 8.32947 0.472697 7.63626 0.625638L7.79784 1.35802L7.95943 2.09041C8.02057 2.07692 8.15764 2.05979 8.53759 2.34188C8.92777 2.63156 9.40865 3.11012 10.1286 3.83084L10.6592 3.30078ZM6.01744 4.32489L6.72166 4.58291C7.07226 3.62602 7.30764 2.98935 7.54005 2.56224C7.76642 2.14625 7.89816 2.10393 7.95943 2.09041L7.79784 1.35802L7.63626 0.625638C6.94318 0.778551 6.52673 1.28619 6.22249 1.84528C5.9243 2.39326 5.64666 3.15681 5.31322 4.06687L6.01744 4.32489ZM1.33301 14.6673L1.86361 15.1974L4.96576 12.0921L4.43516 11.562L3.90456 11.0319L0.802408 14.1373L1.33301 14.6673Z" fill="var(--pin-color)"/>
<path d="M1.5 1.5L14.5 15" stroke="var(--pin-color)" stroke-width="1.5" stroke-linecap="round"/>
</g>
<defs>
<clipPath id="clip0_4297_80441">
<rect width="16" height="16" fill="white"/>
</clipPath>
</defs>
</svg>
