<svg width="20" height="20" viewBox="0 0 20 20" fill="none" xmlns="http://www.w3.org/2000/svg">
<g clip-path="url(#clip0_6280_76585)">
<path d="M12.9167 7.5L13.0597 7.64298C14.1708 8.75409 14.7264 9.30964 14.7264 10C14.7264 10.6904 14.1708 11.2459 13.0597 12.357L12.9167 12.5" stroke="var(--color-14)" stroke-width="1.5" stroke-linecap="round"/>
<path d="M11.0784 5.97461L9.99996 9.9993L8.92154 14.024" stroke="var(--color-14)" stroke-width="1.5" stroke-linecap="round"/>
<path d="M7.08333 7.5L6.94035 7.64298C5.82924 8.75409 5.27368 9.30964 5.27368 10C5.27368 10.6904 5.82924 11.2459 6.94035 12.357L7.08333 12.5" stroke="var(--color-14)" stroke-width="1.5" stroke-linecap="round"/>
<path d="M1.66675 9.99935C1.66675 6.07098 1.66675 4.10679 2.88714 2.8864C4.10752 1.66602 6.07171 1.66602 10.0001 1.66602C13.9285 1.66602 15.8926 1.66602 17.113 2.8864C18.3334 4.10679 18.3334 6.07098 18.3334 9.99935C18.3334 13.9277 18.3334 15.8919 17.113 17.1123C15.8926 18.3327 13.9285 18.3327 10.0001 18.3327C6.07171 18.3327 4.10752 18.3327 2.88714 17.1123C1.66675 15.8919 1.66675 13.9277 1.66675 9.99935Z" stroke="var(--color-14)" stroke-width="1.5"/>
</g>
<defs>
<clipPath id="clip0_6280_76585">
<rect width="20" height="20" rx="5" fill="white"/>
</clipPath>
</defs>
</svg>
