<svg width="16" height="16" viewBox="0 0 16 16" fill="none" xmlns="http://www.w3.org/2000/svg">
<g clip-path="url(#clip0_4219_84216)">
<path d="M4.14234 6.1662C4.6989 5.98068 4.97718 5.88792 5.20828 5.72984C5.41296 5.58982 5.58982 5.41296 5.72984 5.20828C5.88792 4.97718 5.98068 4.6989 6.1662 4.14234L7.11172 1.30578C7.23907 0.92372 7.59662 0.666016 7.99935 0.666016C8.40208 0.666016 8.75963 0.923721 8.88698 1.30578L9.8325 4.14234C10.018 4.6989 10.1108 4.97718 10.2689 5.20828C10.4089 5.41296 10.5857 5.58982 10.7904 5.72984C11.0215 5.88792 11.2998 5.98068 11.8564 6.1662L14.6929 7.11172C15.075 7.23907 15.3327 7.59662 15.3327 7.99935C15.3327 8.40208 15.075 8.75963 14.6929 8.88698L11.8564 9.8325C11.2998 10.018 11.0215 10.1108 10.7904 10.2689C10.5857 10.4089 10.4089 10.5857 10.2689 10.7904C10.1108 11.0215 10.018 11.2998 9.8325 11.8564L8.88698 14.6929C8.75963 15.075 8.40208 15.3327 7.99935 15.3327C7.59662 15.3327 7.23907 15.075 7.11172 14.6929L6.1662 11.8564C5.98068 11.2998 5.88792 11.0215 5.72984 10.7904C5.58982 10.5857 5.41296 10.4089 5.20828 10.2689C4.97718 10.1108 4.6989 10.018 4.14234 9.8325L1.30578 8.88698C0.92372 8.75963 0.666016 8.40208 0.666016 7.99935C0.666016 7.59662 0.923721 7.23907 1.30578 7.11172L4.14234 6.1662Z" fill="var(--success-color-2)"/>
</g>
<defs>
<clipPath id="clip0_4219_84216">
<rect width="16" height="16" fill="var(--success-color-2)"/>
</clipPath>
</defs>
</svg>
