<svg width="16" height="16" viewBox="0 0 16 16" fill="none" xmlns="http://www.w3.org/2000/svg">
<g clip-path="url(#clip0_4030_15736)">
<path fill-rule="evenodd" clip-rule="evenodd" d="M7.81288 0.541142C7.82524 0.500424 7.85037 0.464761 7.88456 0.439417C7.91874 0.414073 7.96016 0.400391 8.00272 0.400391C8.04527 0.400391 8.0867 0.414073 8.12088 0.439417C8.15507 0.464761 8.18019 0.500424 8.19256 0.541142L8.91224 2.95442C9.20424 3.93385 9.73556 4.82514 10.4582 5.54784C11.1809 6.27054 12.0722 6.8019 13.0516 7.09394L15.4649 7.81362C15.5055 7.82603 15.5411 7.85117 15.5664 7.88533C15.5917 7.91949 15.6054 7.96088 15.6054 8.00338C15.6054 8.04589 15.5917 8.08727 15.5664 8.12143C15.5411 8.1556 15.5055 8.18073 15.4649 8.19314L13.0516 8.91282C12.0722 9.20487 11.181 9.73621 10.4584 10.4589C9.73572 11.1816 9.20441 12.0728 8.9124 13.0522L8.19256 15.4655C8.18015 15.5061 8.15501 15.5417 8.12085 15.567C8.08669 15.5923 8.0453 15.6059 8.0028 15.6059C7.96029 15.6059 7.91891 15.5923 7.88475 15.567C7.85058 15.5417 7.82545 15.5061 7.81304 15.4655L7.09336 13.0522C6.80129 12.0728 6.26993 11.1816 5.54723 10.4589C4.82453 9.73627 3.93325 9.20497 2.95384 8.91298L0.540879 8.19298C0.500224 8.18057 0.464628 8.15544 0.439335 8.12127C0.414042 8.08711 0.400391 8.04573 0.400391 8.00322C0.400391 7.96071 0.414042 7.91933 0.439335 7.88517C0.464628 7.85101 0.500224 7.82587 0.540879 7.81346L2.954 7.09378C3.93345 6.80176 4.82475 6.27042 5.54745 5.54772C6.27015 4.82502 6.8015 3.93371 7.09352 2.95426L7.81288 0.541142Z" fill="#286F5F"/>
<path fill-rule="evenodd" clip-rule="evenodd" d="M7.81288 0.541142C7.82524 0.500424 7.85037 0.464761 7.88456 0.439417C7.91874 0.414073 7.96016 0.400391 8.00272 0.400391C8.04527 0.400391 8.0867 0.414073 8.12088 0.439417C8.15507 0.464761 8.18019 0.500424 8.19256 0.541142L8.91224 2.95442C9.20424 3.93385 9.73556 4.82514 10.4582 5.54784C11.1809 6.27054 12.0722 6.8019 13.0516 7.09394L15.4649 7.81362C15.5055 7.82603 15.5411 7.85117 15.5664 7.88533C15.5917 7.91949 15.6054 7.96088 15.6054 8.00338C15.6054 8.04589 15.5917 8.08727 15.5664 8.12143C15.5411 8.1556 15.5055 8.18073 15.4649 8.19314L13.0516 8.91282C12.0722 9.20487 11.181 9.73621 10.4584 10.4589C9.73572 11.1816 9.20441 12.0728 8.9124 13.0522L8.19256 15.4655C8.18015 15.5061 8.15501 15.5417 8.12085 15.567C8.08669 15.5923 8.0453 15.6059 8.0028 15.6059C7.96029 15.6059 7.91891 15.5923 7.88475 15.567C7.85058 15.5417 7.82545 15.5061 7.81304 15.4655L7.09336 13.0522C6.80129 12.0728 6.26993 11.1816 5.54723 10.4589C4.82453 9.73627 3.93325 9.20497 2.95384 8.91298L0.540879 8.19298C0.500224 8.18057 0.464628 8.15544 0.439335 8.12127C0.414042 8.08711 0.400391 8.04573 0.400391 8.00322C0.400391 7.96071 0.414042 7.91933 0.439335 7.88517C0.464628 7.85101 0.500224 7.82587 0.540879 7.81346L2.954 7.09378C3.93345 6.80176 4.82475 6.27042 5.54745 5.54772C6.27015 4.82502 6.8015 3.93371 7.09352 2.95426L7.81288 0.541142Z" fill="#0E7D42"/>
</g>
<defs>
<clipPath id="clip0_4030_15736">
<rect width="16" height="16" fill="white"/>
</clipPath>
</defs>
</svg>
