<svg width="64" height="64" viewBox="0 0 64 64" fill="none" xmlns="http://www.w3.org/2000/svg">
<path d="M42.6665 45.332L23.9998 45.332" stroke="var(--color-14)" stroke-width="3" stroke-linecap="round" stroke-linejoin="round"/>
<path d="M42.6665 34.666L34.6665 34.666" stroke="var(--color-14)" stroke-width="3" stroke-linecap="round" stroke-linejoin="round"/>
<path d="M54.6665 37.3327C54.6665 47.3893 54.6665 52.4176 51.347 55.5418C48.0276 58.666 42.685 58.666 31.9998 58.666H29.9392C21.2427 58.666 16.8944 58.666 13.8747 56.5385C13.0095 55.9289 12.2414 55.2059 11.5937 54.3916C9.33317 51.5496 9.33317 47.4571 9.33317 39.2721V32.4842C9.33317 24.5824 9.33317 20.6315 10.5837 17.476C12.594 12.4031 16.8455 8.40171 22.2355 6.50963C25.5882 5.33269 29.786 5.33269 38.1817 5.33269C42.9792 5.33269 45.3779 5.33269 47.2938 6.00522C50.3737 7.08641 52.8032 9.37295 53.9519 12.2717C54.6665 14.0749 54.6665 16.3325 54.6665 20.8478V37.3327Z" stroke="var(--color-14)" stroke-width="3" stroke-linejoin="round"/>
<path d="M9.33333 32C9.33333 27.0908 13.313 23.1111 18.2222 23.1111C19.9976 23.1111 22.0908 23.4222 23.817 22.9597C25.3507 22.5487 26.5487 21.3507 26.9597 19.817C27.4222 18.0908 27.1111 15.9976 27.1111 14.2222C27.1111 9.31302 31.0908 5.33333 36 5.33333" stroke="var(--color-14)" stroke-width="3" stroke-linecap="round" stroke-linejoin="round"/>
</svg>
