<svg width="20" height="20" viewBox="0 0 20 20" fill="none" xmlns="http://www.w3.org/2000/svg">
<path d="M13.333 14.166L7.49967 14.166" stroke="var(--icon-color-2)" stroke-width="1.5" stroke-linecap="round" stroke-linejoin="round"/>
<path d="M13.333 10.832L10.833 10.832" stroke="var(--icon-color-2)" stroke-width="1.5" stroke-linecap="round" stroke-linejoin="round"/>
<path d="M17.083 11.6654C17.083 14.8081 17.083 16.3794 16.0457 17.3557C15.0083 18.332 13.3388 18.332 9.99967 18.332H9.35574C6.63806 18.332 5.27923 18.332 4.33557 17.6672C4.06519 17.4767 3.82516 17.2508 3.62276 16.9963C2.91634 16.1081 2.91634 14.8292 2.91634 12.2714V10.1502C2.91634 7.6809 2.91634 6.44625 3.30712 5.46016C3.93535 3.87488 5.26395 2.62444 6.94831 2.03316C7.99603 1.66537 9.30785 1.66536 11.9315 1.66536C13.4307 1.66536 14.1803 1.66536 14.779 1.87553C15.7415 2.2134 16.5007 2.92795 16.8597 3.83382C17.083 4.3973 17.083 5.10282 17.083 6.51385V11.6654Z" stroke="var(--icon-color-2)" stroke-width="1.5" stroke-linejoin="round"/>
<path d="M2.91667 10C2.91667 8.46588 4.16032 7.22222 5.69444 7.22222C6.24926 7.22222 6.90336 7.31944 7.4428 7.1749C7.9221 7.04647 8.29647 6.6721 8.4249 6.1928C8.56944 5.65336 8.47222 4.99926 8.47222 4.44444C8.47222 2.91032 9.71588 1.66667 11.25 1.66667" stroke="var(--icon-color-2)" stroke-width="1.5" stroke-linecap="round" stroke-linejoin="round"/>
</svg>
