<svg width="20" height="20" viewBox="0 0 20 20" fill="none" xmlns="http://www.w3.org/2000/svg">
<g clip-path="url(#clip0_4014_36369)">
<path d="M7.50195 5.83268C7.51204 4.02016 7.59242 3.03857 8.23274 2.39825C8.96497 1.66602 10.1435 1.66602 12.5005 1.66602L13.3338 1.66602C15.6909 1.66602 16.8694 1.66602 17.6016 2.39825C18.3338 3.13048 18.3338 4.30899 18.3338 6.66602L18.3338 13.3327C18.3338 15.6897 18.3338 16.8682 17.6016 17.6004C16.8694 18.3327 15.6909 18.3327 13.3338 18.3327L12.5005 18.3327C10.1435 18.3327 8.96497 18.3327 8.23274 17.6004C7.59242 16.9601 7.51204 15.9785 7.50195 14.166" stroke="var(--icon-color-4)" stroke-width="1.5" stroke-linecap="round"/>
<path d="M12.5 10L1.66667 10M1.66667 10L4.58333 7.5M1.66667 10L4.58333 12.5" stroke="var(--icon-color-4)" stroke-width="1.5" stroke-linecap="round" stroke-linejoin="round"/>
</g>
<defs>
<clipPath id="clip0_4014_36369">
<rect width="20" height="20" rx="5" fill="white"/>
</clipPath>
</defs>
</svg>
