<svg width="20" height="20" viewBox="0 0 20 20" fill="none" xmlns="http://www.w3.org/2000/svg">
<path d="M9.64233 17.4993H8.75618C5.41431 17.4993 3.74337 17.4993 2.70518 16.2112C1.66699 14.923 1.66699 12.8497 1.66699 8.70305V6.01514C1.66699 4.41732 1.66699 3.61841 1.93661 3.01894C2.1288 2.59162 2.41296 2.23902 2.75735 2.00055C3.24048 1.66602 3.88435 1.66602 5.17208 1.66602C5.99708 1.66602 6.40959 1.66602 6.77068 1.83403C7.59513 2.21765 7.9351 3.14694 8.30713 4.07015L8.75618 5.18453M5.8371 5.18453H12.9576C14.451 5.18453 15.1978 5.18453 15.7342 5.62927C15.9664 5.8218 16.1658 6.06919 16.321 6.35733C16.5626 6.80605 16.6413 7.37337 16.667 8.26324" stroke="var(--icon-color-3)" stroke-width="1.5" stroke-linecap="round"/>
<path d="M3.82967 10.4802C4.18911 9.52261 4.36883 9.0438 4.71956 8.74312C5.28572 8.25776 6.09971 8.33911 6.79724 8.33911H14.377C16.441 8.33911 17.473 8.33911 17.988 9.00322C18.872 10.1432 17.8291 11.9925 17.409 13.1117C16.6559 15.1182 16.2793 16.1214 15.5293 16.7333C14.3865 17.6656 12.7242 17.4869 11.3449 17.4869H8.28103C5.3285 17.4869 3.85224 17.4869 3.08452 16.5728C1.66729 14.8854 3.19226 12.1784 3.82967 10.4802Z" stroke="var(--icon-color-3)" stroke-width="1.5" stroke-linecap="round"/>
</svg>
