<svg width="40" height="40" viewBox="0 0 40 40" fill="none" xmlns="http://www.w3.org/2000/svg">
<path fill-rule="evenodd" clip-rule="evenodd" d="M23.334 36.6673H16.6673C10.3819 36.6673 7.23923 36.6673 5.28661 34.7147C3.33398 32.7621 3.33398 29.6194 3.33398 23.334V16.6673C3.33398 10.3819 3.33398 7.23923 5.28661 5.28661C7.23923 3.33398 10.3985 3.33398 16.717 3.33398C17.727 3.33398 18.5363 3.33398 19.2173 3.36175C19.1949 3.49497 19.1832 3.63086 19.1827 3.76826L19.1673 8.49226C19.1672 10.3208 19.167 11.9367 19.3422 13.2392C19.532 14.6511 19.9678 16.0628 21.1199 17.2149C22.2721 18.367 23.6837 18.8028 25.0956 18.9927C26.3981 19.1678 28.0141 19.1676 29.8426 19.1675L36.5963 19.1675C36.6673 20.0579 36.6673 21.1508 36.6673 22.6055V23.334C36.6673 29.6194 36.6673 32.7621 34.7147 34.7147C32.7621 36.6673 29.6194 36.6673 23.334 36.6673ZM8.75065 24.1673C8.75065 23.477 9.31029 22.9173 10.0007 22.9173H23.334C24.0243 22.9173 24.584 23.477 24.584 24.1673C24.584 24.8577 24.0243 25.4173 23.334 25.4173H10.0007C9.31029 25.4173 8.75065 24.8577 8.75065 24.1673ZM8.75065 30.0007C8.75065 29.3103 9.31029 28.7507 10.0007 28.7507H19.1673C19.8577 28.7507 20.4173 29.3103 20.4173 30.0007C20.4173 30.691 19.8577 31.2507 19.1673 31.2507H10.0007C9.31029 31.2507 8.75065 30.691 8.75065 30.0007Z" fill="var(--color-7)"/>
<path d="M32.2535 12.6951L25.6556 6.75691C23.7758 5.06512 22.8359 4.21922 21.6827 3.77669L21.6673 8.33416C21.6673 12.2625 21.6673 14.2267 22.8877 15.4471C24.1081 16.6675 26.0723 16.6675 30.0007 16.6675H35.9675C35.3632 15.4938 34.2813 14.5201 32.2535 12.6951Z" fill="var(--color-7)"/>
</svg>
