<svg width="20" height="20" viewBox="0 0 20 20" fill="none" xmlns="http://www.w3.org/2000/svg">
<g clip-path="url(#clip0_6280_76579)">
<path d="M18.3334 9.99935C18.3334 13.9277 18.3334 15.8919 17.113 17.1123C15.8926 18.3327 13.9285 18.3327 10.0001 18.3327C6.07171 18.3327 4.10752 18.3327 2.88714 17.1123C1.66675 15.8919 1.66675 13.9277 1.66675 9.99935C1.66675 6.07098 1.66675 4.10679 2.88714 2.8864C4.10752 1.66602 6.07171 1.66602 10.0001 1.66602" stroke="var(--color-14)" stroke-width="1.5" stroke-linecap="round"/>
<path d="M1.66675 10.4174L3.1264 9.14024C3.8858 8.47578 5.03031 8.51389 5.74382 9.2274L9.31859 12.8022C9.89128 13.3749 10.7928 13.4529 11.4554 12.9873L11.7039 12.8126C12.6574 12.1425 13.9475 12.2201 14.8138 12.9998L17.5001 15.4174" stroke="var(--color-14)" stroke-width="1.5" stroke-linecap="round"/>
<path d="M15.4683 2.44551L15.8159 2.09793C16.3917 1.52204 17.3254 1.52204 17.9013 2.09793C18.4772 2.67382 18.4772 3.60752 17.9013 4.18341L17.5538 4.53099M15.4683 2.44551C15.4683 2.44551 15.5117 3.18412 16.1634 3.83583C16.8151 4.48754 17.5538 4.53099 17.5538 4.53099M15.4683 2.44551L12.2728 5.64098C12.0564 5.85741 11.9482 5.96563 11.8551 6.08495C11.7453 6.22571 11.6512 6.37801 11.5744 6.53915C11.5093 6.67575 11.4609 6.82094 11.3641 7.11132L11.0542 8.04102M17.5538 4.53099L14.3583 7.72646C14.1419 7.94289 14.0336 8.05111 13.9143 8.14418C13.7736 8.25396 13.6213 8.34809 13.4601 8.42489C13.3235 8.48999 13.1783 8.53839 12.8879 8.63518L11.9583 8.94508M11.9583 8.94508L11.3567 9.1456C11.2138 9.19323 11.0562 9.15604 10.9497 9.04953C10.8432 8.94302 10.806 8.78547 10.8537 8.64258L11.0542 8.04102M11.9583 8.94508L11.0542 8.04102" stroke="var(--color-14)" stroke-width="1.5"/>
</g>
<defs>
<clipPath id="clip0_6280_76579">
<rect width="20" height="20" fill="white"/>
</clipPath>
</defs>
</svg>
