<svg width="32" height="32" viewBox="0 0 32 32" fill="none" xmlns="http://www.w3.org/2000/svg">
<path d="M24.0003 10.666C24.0003 12.1388 22.8064 13.3327 21.3337 13.3327C19.8609 13.3327 18.667 12.1388 18.667 10.666C18.667 9.19326 19.8609 7.99935 21.3337 7.99935C22.8064 7.99935 24.0003 9.19326 24.0003 10.666Z" fill="url(#paint0_linear_4026_30996)"/>
<path fill-rule="evenodd" clip-rule="evenodd" d="M16.0768 1.66602H15.9238C12.846 1.666 10.4339 1.66599 8.55193 1.91901C6.62562 2.178 5.10559 2.71845 3.91251 3.91153C2.71943 5.10461 2.17897 6.62464 1.91999 8.55096C1.66696 10.4329 1.66698 12.845 1.66699 15.9228V16.0759C1.66698 19.1537 1.66696 21.5658 1.91999 23.4477C2.17897 25.3741 2.71943 26.8941 3.91251 28.0872C5.10559 29.2802 6.62562 29.8207 8.55193 30.0797C10.4339 30.3327 12.846 30.3327 15.9238 30.3327H16.0768C19.1547 30.3327 21.5667 30.3327 23.4487 30.0797C25.375 29.8207 26.8951 29.2802 28.0881 28.0872C29.2812 26.8941 29.8217 25.3741 30.0807 23.4477C30.3337 21.5658 30.3337 19.1537 30.3337 16.0758V15.9229C30.3337 12.845 30.3337 10.4329 30.0807 8.55096C29.8217 6.62464 29.2812 5.10461 28.0881 3.91153C26.8951 2.71845 25.375 2.178 23.4487 1.91901C21.5667 1.66599 19.1547 1.666 16.0768 1.66602ZM5.32672 5.32574C6.08626 4.5662 7.11389 4.13035 8.81843 3.90118C10.5517 3.66814 12.8294 3.66602 16.0003 3.66602C19.1713 3.66602 21.4489 3.66814 23.1822 3.90118C24.8868 4.13035 25.9144 4.5662 26.6739 5.32574C27.4335 6.08529 27.8693 7.11291 28.0985 8.81745C28.3315 10.5508 28.3337 12.8284 28.3337 15.9993C28.3337 16.5997 28.3336 17.1679 28.3319 17.7066L28.0357 17.6656C24.2441 17.1406 20.7743 19.1117 19.0075 22.0828C16.7282 16.3162 10.7049 12.3834 3.97464 13.3498L3.67361 13.3932C3.68877 11.5192 3.73856 10.0342 3.90215 8.81745C4.13132 7.11291 4.56718 6.08529 5.32672 5.32574Z" fill="url(#paint1_linear_4026_30996)"/>
<defs>
<linearGradient id="paint0_linear_4026_30996" x1="0.00097672" y1="1.99902" x2="32.001" y2="29.999" gradientUnits="userSpaceOnUse">
<stop stop-color="#6A77F0"/>
<stop offset="1" stop-color="#2F1BA3"/>
</linearGradient>
<linearGradient id="paint1_linear_4026_30996" x1="0.00097672" y1="1.99902" x2="32.001" y2="29.999" gradientUnits="userSpaceOnUse">
<stop stop-color="#6A77F0"/>
<stop offset="1" stop-color="#2F1BA3"/>
</linearGradient>
</defs>
</svg>
