<svg width="20" height="20" viewBox="0 0 20 20" fill="none" xmlns="http://www.w3.org/2000/svg">
<g clip-path="url(#clip0_4354_97785)">
<path d="M1.66663 9.99935C1.66663 6.07098 1.66663 4.10679 2.88701 2.8864C4.1074 1.66602 6.07159 1.66602 9.99996 1.66602C13.9283 1.66602 15.8925 1.66602 17.1129 2.8864C18.3333 4.10679 18.3333 6.07098 18.3333 9.99935C18.3333 13.9277 18.3333 15.8919 17.1129 17.1123C15.8925 18.3327 13.9283 18.3327 9.99996 18.3327C6.07159 18.3327 4.1074 18.3327 2.88701 17.1123C1.66663 15.8919 1.66663 13.9277 1.66663 9.99935Z" stroke="var(--color-14)" stroke-width="1.5"/>
<circle cx="13.3333" cy="6.66667" r="1.66667" stroke="var(--color-14)" stroke-width="1.5"/>
<path d="M1.66663 10.4174L3.12628 9.14024C3.88567 8.47578 5.03019 8.51389 5.7437 9.2274L9.31847 12.8022C9.89116 13.3749 10.7927 13.4529 11.4553 12.9873L11.7038 12.8126C12.6573 12.1425 13.9474 12.2201 14.8137 12.9998L17.5 15.4174" stroke="var(--color-14)" stroke-width="1.5" stroke-linecap="round"/>
</g>
<defs>
<clipPath id="clip0_4354_97785">
<rect width="20" height="20" fill="white"/>
</clipPath>
</defs>
</svg>
