<svg width="64" height="64" viewBox="0 0 64 64" fill="none" xmlns="http://www.w3.org/2000/svg">
<path d="M5.3335 32.0006C5.3335 19.4299 5.3335 13.1445 9.23874 9.23923C13.144 5.33398 19.4294 5.33398 32.0002 5.33398C44.5709 5.33398 50.8563 5.33398 54.7616 9.23923C58.6668 13.1445 58.6668 19.4299 58.6668 32.0006C58.6668 44.5714 58.6668 50.8568 54.7616 54.7621C50.8563 58.6673 44.5709 58.6673 32.0002 58.6673C19.4294 58.6673 13.144 58.6673 9.23874 54.7621C5.3335 50.8568 5.3335 44.5714 5.3335 32.0006Z" stroke="var(--color-14)" stroke-width="3"/>
<circle cx="42.6668" cy="21.3333" r="5.33333" stroke="var(--color-14)" stroke-width="3"/>
<path d="M5.3335 33.333L10.0044 29.246C12.4344 27.1198 16.0969 27.2417 18.3801 29.5249L29.8194 40.9642C31.652 42.7968 34.5368 43.0467 36.6572 41.5565L37.4524 40.9976C40.5037 38.8532 44.632 39.1017 47.4041 41.5966L56.0002 49.333" stroke="var(--color-14)" stroke-width="3" stroke-linecap="round"/>
</svg>
