<svg width="20" height="20" viewBox="0 0 20 20" fill="none" xmlns="http://www.w3.org/2000/svg">
<g clip-path="url(#clip0_4267_137236)">
<path d="M18.3327 9.99935C18.3327 13.9277 18.3327 15.8919 17.1123 17.1123C15.8919 18.3327 13.9277 18.3327 9.99935 18.3327C6.07098 18.3327 4.10679 18.3327 2.8864 17.1123C1.66602 15.8919 1.66602 13.9277 1.66602 9.99935C1.66602 6.07098 1.66602 4.10679 2.8864 2.8864C4.10679 1.66602 6.07098 1.66602 9.99935 1.66602" stroke="var(--color-14)" stroke-width="1.5" stroke-linecap="round"/>
<path d="M1.66602 10.4174L3.12567 9.14024C3.88506 8.47578 5.02958 8.51389 5.74309 9.2274L9.31786 12.8022C9.89055 13.3749 10.7921 13.4529 11.4547 12.9873L11.7032 12.8126C12.6567 12.1425 13.9468 12.2201 14.8131 12.9998L17.4993 15.4174" stroke="var(--color-14)" stroke-width="1.5" stroke-linecap="round"/>
<path d="M15.469 2.44551L15.8166 2.09793C16.3925 1.52204 17.3262 1.52204 17.9021 2.09793C18.478 2.67382 18.478 3.60752 17.9021 4.18341L17.5545 4.53099M15.469 2.44551C15.469 2.44551 15.5125 3.18412 16.1642 3.83583C16.8159 4.48754 17.5545 4.53099 17.5545 4.53099M15.469 2.44551L12.2735 5.64098C12.0571 5.85741 11.9489 5.96563 11.8558 6.08495C11.746 6.22571 11.6519 6.37801 11.5751 6.53915C11.51 6.67575 11.4616 6.82094 11.3648 7.11132L11.0549 8.04102M17.5545 4.53099L14.359 7.72646C14.1426 7.94289 14.0344 8.05111 13.915 8.14418C13.7743 8.25396 13.622 8.34809 13.4609 8.42489C13.3242 8.48999 13.1791 8.53839 12.8887 8.63518L11.959 8.94508M11.959 8.94508L11.3574 9.1456C11.2145 9.19323 11.057 9.15604 10.9505 9.04953C10.844 8.94302 10.8068 8.78547 10.8544 8.64258L11.0549 8.04102M11.959 8.94508L11.0549 8.04102" stroke="var(--color-14)" stroke-width="1.5"/>
</g>
<defs>
<clipPath id="clip0_4267_137236">
<rect width="20" height="20" fill="white"/>
</clipPath>
</defs>
</svg>
