<svg width="20" height="20" viewBox="0 0 20 20" fill="none" xmlns="http://www.w3.org/2000/svg">
<g clip-path="url(#clip0_4038_16691)">
<path d="M18.3337 9.99935C18.3337 11.0937 18.1181 12.1773 17.6993 13.1884C17.2805 14.1994 16.6667 15.1181 15.8929 15.8919C15.1191 16.6657 14.2004 17.2796 13.1894 17.6983C12.1783 18.1171 11.0947 18.3327 10.0003 18.3327C8.90598 18.3327 7.82234 18.1171 6.8113 17.6983C5.80025 17.2796 4.88159 16.6657 4.10777 15.8919C3.33395 15.1181 2.72012 14.1994 2.30133 13.1884C1.88254 12.1773 1.66699 11.0937 1.66699 9.99935C1.66699 8.905 1.88254 7.82137 2.30133 6.81032C2.72012 5.79927 3.33395 4.88061 4.10777 4.10679C4.88159 3.33297 5.80025 2.71914 6.8113 2.30035C7.82234 1.88156 8.90598 1.66602 10.0003 1.66602C11.0947 1.66602 12.1783 1.88156 13.1894 2.30035C14.2004 2.71914 15.1191 3.33297 15.8929 4.10679C16.6667 4.88061 17.2805 5.79927 17.6993 6.81032C18.1181 7.82137 18.3337 8.905 18.3337 9.99935L18.3337 9.99935Z" stroke="var(--color-14)" stroke-width="1.5"/>
<path d="M13.3337 9.99935C13.3337 11.0937 13.2474 12.1773 13.0799 13.1884C12.9124 14.1994 12.6669 15.1181 12.3573 15.8919C12.0478 16.6657 11.6804 17.2796 11.2759 17.6983C10.8715 18.1171 10.4381 18.3327 10.0003 18.3327C9.56259 18.3327 9.12913 18.1171 8.72471 17.6983C8.3203 17.2796 7.95283 16.6657 7.6433 15.8919C7.33377 15.1181 7.08824 14.1994 6.92073 13.1884C6.75321 12.1773 6.66699 11.0937 6.66699 9.99935C6.66699 8.905 6.75321 7.82137 6.92073 6.81032C7.08824 5.79927 7.33377 4.88061 7.6433 4.10679C7.95283 3.33297 8.3203 2.71914 8.72471 2.30035C9.12913 1.88156 9.56259 1.66602 10.0003 1.66602C10.4381 1.66602 10.8715 1.88156 11.2759 2.30035C11.6804 2.71914 12.0478 3.33297 12.3573 4.10679C12.6669 4.88061 12.9124 5.79927 13.0799 6.81032C13.2474 7.82137 13.3337 8.905 13.3337 9.99935L13.3337 9.99935Z" stroke="var(--color-14)" stroke-width="1.5"/>
<path d="M1.66699 10H18.3337" stroke="var(--color-14)" stroke-width="1.5" stroke-linecap="round"/>
</g>
<defs>
<clipPath id="clip0_4038_16691">
<rect width="20" height="20" fill="white"/>
</clipPath>
</defs>
</svg>
