<svg width="32" height="32" viewBox="0 0 32 32" fill="none" xmlns="http://www.w3.org/2000/svg">
<path d="M30.08 16.334C30.08 15.294 29.9867 14.294 29.8133 13.334H16V19.014H23.8933C23.5467 20.8407 22.5067 22.3873 20.9467 23.4273V27.1207H25.7067C28.48 24.5607 30.08 20.8007 30.08 16.334Z" fill="#4285F4"/>
<path d="M16.0015 30.6674C19.9615 30.6674 23.2815 29.3608 25.7082 27.1208L20.9482 23.4274C19.6415 24.3074 17.9749 24.8408 16.0015 24.8408C12.1882 24.8408 8.9482 22.2674 7.7882 18.8008H2.9082V22.5874C5.32154 27.3741 10.2682 30.6674 16.0015 30.6674Z" fill="#34A853"/>
<path d="M7.78732 18.7877C7.49398 17.9077 7.32065 16.9744 7.32065 16.0011C7.32065 15.0277 7.49398 14.0944 7.78732 13.2144V9.42773H2.90732C1.90732 11.4011 1.33398 13.6277 1.33398 16.0011C1.33398 18.3744 1.90732 20.6011 2.90732 22.5744L6.70732 19.6144L7.78732 18.7877Z" fill="#FBBC05"/>
<path d="M16.0015 7.17398C18.1615 7.17398 20.0815 7.92065 21.6149 9.36065L25.8149 5.16065C23.2682 2.78732 19.9615 1.33398 16.0015 1.33398C10.2682 1.33398 5.32154 4.62732 2.9082 9.42732L7.7882 13.214C8.9482 9.74732 12.1882 7.17398 16.0015 7.17398Z" fill="#EA4335"/>
</svg>
