<svg width="32" height="32" viewBox="0 0 32 32" fill="none" xmlns="http://www.w3.org/2000/svg">
<g clip-path="url(#clip0_4026_29557)">
<path fill-rule="evenodd" clip-rule="evenodd" d="M8.07129 7.85742C11.542 4.39214 16.6542 3.51789 20.9238 5.27344C21.8684 5.62402 22.6917 6.12308 23.334 6.58691L19.7686 8.23145C16.449 6.84008 12.6462 7.78729 10.3252 10.1064C7.28473 13.142 6.59458 18.3358 9.89844 21.8496L10.2285 22.1875L0.185547 31.1514C0.822481 30.2749 1.61329 29.447 2.40137 28.6191C4.62516 26.2838 6.83276 23.9701 5.48633 20.6992C3.68354 16.3226 4.73307 11.1933 8.07129 7.85742ZM31.5781 1.1748C28.2721 5.72402 26.6577 7.94875 27.9531 13.5146L27.9453 13.5068C28.8385 17.2955 27.8834 21.4968 24.7988 24.5791C20.9097 28.4677 14.6857 29.3333 9.56055 25.833L13.1338 24.1797C16.4048 25.4633 19.9837 24.9 22.5557 22.3301C25.1277 19.7601 25.7048 16.017 24.4121 12.9023C24.1664 12.312 23.4305 12.164 22.915 12.5439L12.3975 20.3027L27.4619 5.18164V5.19531L31.8125 0.847656C31.7342 0.958222 31.6563 1.06694 31.5781 1.1748Z" fill="var(--color-20)"/>
</g>
<defs>
<clipPath id="clip0_4026_29557">
<rect width="32" height="32" fill="white"/>
</clipPath>
</defs>
</svg>
