<svg width="20" height="20" viewBox="0 0 20 20" fill="none" xmlns="http://www.w3.org/2000/svg">
<g clip-path="url(#clip0_4029_16580)">
<path d="M1.66699 9.99935C1.66699 6.07098 1.66699 4.10679 2.88738 2.8864C4.10777 1.66602 6.07195 1.66602 10.0003 1.66602C13.9287 1.66602 15.8929 1.66602 17.1133 2.8864C18.3337 4.10679 18.3337 6.07098 18.3337 9.99935C18.3337 13.9277 18.3337 15.8919 17.1133 17.1123C15.8929 18.3327 13.9287 18.3327 10.0003 18.3327C6.07195 18.3327 4.10777 18.3327 2.88738 17.1123C1.66699 15.8919 1.66699 13.9277 1.66699 9.99935Z" stroke="var(--icon-color-2)" stroke-width="1.5"/>
<circle cx="13.3337" cy="6.66667" r="1.66667" stroke="var(--icon-color-2)" stroke-width="1.5"/>
<path d="M1.66699 10.4174L3.12665 9.14024C3.88604 8.47578 5.03056 8.51389 5.74406 9.2274L9.31883 12.8022C9.89153 13.3749 10.793 13.4529 11.4557 12.9873L11.7042 12.8126C12.6577 12.1425 13.9478 12.2201 14.814 12.9998L17.5003 15.4174" stroke="var(--icon-color-2)" stroke-width="1.5" stroke-linecap="round"/>
</g>
<defs>
<clipPath id="clip0_4029_16580">
<rect width="20" height="20" fill="white"/>
</clipPath>
</defs>
</svg>
