<svg width="20" height="20" viewBox="0 0 20 20" fill="none" xmlns="http://www.w3.org/2000/svg">
<path d="M7.91699 11.666C9.2977 11.666 10.417 12.7853 10.417 14.166C10.417 15.5467 9.2977 16.666 7.91699 16.666C6.53628 16.666 5.41699 15.5467 5.41699 14.166C5.41699 12.7853 6.53628 11.666 7.91699 11.666Z" stroke="var(--icon-color-2)" stroke-width="1.5"/>
<path d="M12.083 3.33396C10.7023 3.33396 9.58301 4.45325 9.58301 5.83396C9.58301 7.21468 10.7023 8.33396 12.083 8.33396C13.4637 8.33396 14.583 7.21468 14.583 5.83396C14.583 4.45325 13.4637 3.33396 12.083 3.33396Z" stroke="var(--icon-color-2)" stroke-width="1.5"/>
<path d="M12.5 14.1328L18.3333 14.1328" stroke="var(--icon-color-2)" stroke-width="1.5" stroke-linecap="round"/>
<path d="M7.5 5.79883L1.66667 5.79883" stroke="var(--icon-color-2)" stroke-width="1.5" stroke-linecap="round"/>
<path d="M1.66699 14.1328L3.33366 14.1328" stroke="var(--icon-color-2)" stroke-width="1.5" stroke-linecap="round"/>
<path d="M18.333 5.79883L16.6663 5.79883" stroke="var(--icon-color-2)" stroke-width="1.5" stroke-linecap="round"/>
</svg>
