<svg width="24" height="24" viewBox="0 0 24 24" fill="none" xmlns="http://www.w3.org/2000/svg">
<path d="M3.88208 11.1286H3.97411M20.1141 11.1286H20.0434M6.25961 5.38925L6.32468 5.45432M17.7371 16.8668L17.6869 16.8166M17.7373 5.38925L17.6722 5.45432M6.25978 16.8668L6.30998 16.8166M11.9989 3.01172V3.10375" stroke="var(--color-14)" stroke-width="1.5" stroke-linecap="round" stroke-linejoin="round"/>
<path d="M6.37964 11.1769C6.37964 13.4676 7.76945 15.4301 9.75052 16.2658V18.1102C9.75052 19.3113 10.7331 20.293 11.9333 20.293C13.1335 20.293 14.1161 19.3113 14.1161 18.1102V16.2751C16.4254 15.299 17.9277 12.7546 17.355 9.99449C16.9144 7.88138 15.2047 6.18292 13.0926 5.75064C9.52555 5.02738 6.37964 7.73171 6.37964 11.1769Z" stroke="var(--color-14)" stroke-width="1.5" stroke-linecap="round" stroke-linejoin="round"/>
<path d="M9.75098 16.2793H14.1221" stroke="var(--color-14)" stroke-width="1.5" stroke-linecap="round" stroke-linejoin="round"/>
</svg>
