<svg width="20" height="20" viewBox="0 0 20 20" fill="none" xmlns="http://www.w3.org/2000/svg">
<path d="M12.0833 16.2493H7.91667M12.0833 16.2493C12.0833 15.6547 12.0833 15.3574 12.1151 15.1602C12.2174 14.524 12.2353 14.4839 12.641 13.9833C12.7668 13.8281 13.2338 13.4099 14.1677 12.5736C15.4457 11.4293 16.25 9.76656 16.25 7.91602C16.25 4.46424 13.4518 1.66602 10 1.66602C6.54822 1.66602 3.75 4.46424 3.75 7.91602C3.75 9.76656 4.55425 11.4293 5.8323 12.5736C6.76621 13.4099 7.23322 13.8281 7.35902 13.9833C7.76468 14.4839 7.78258 14.524 7.88493 15.1602C7.91667 15.3574 7.91667 15.6547 7.91667 16.2493M12.0833 16.2493C12.0833 17.0282 12.0833 17.4176 11.9159 17.7077C11.8062 17.8977 11.6484 18.0555 11.4583 18.1652C11.1683 18.3327 10.7788 18.3327 10 18.3327C9.22115 18.3327 8.83173 18.3327 8.54167 18.1652C8.35164 18.0555 8.19385 17.8977 8.08413 17.7077C7.91667 17.4176 7.91667 17.0282 7.91667 16.2493" stroke="var(--color-14)" stroke-width="1.5"/>
<path d="M10 14.1667V12.5" stroke="var(--color-14)" stroke-width="1.5" stroke-linecap="round"/>
<path d="M11.444 11.666C11.1559 12.1642 10.6172 12.4993 10.0003 12.4993C9.38344 12.4993 8.84482 12.1642 8.55664 11.666" stroke="var(--color-14)" stroke-width="1.5" stroke-linecap="round"/>
</svg>
