<svg width="30" height="30" viewBox="0 0 30 30" fill="none" xmlns="http://www.w3.org/2000/svg">
<g clip-path="url(#clip0_4015_37428)">
<path d="M15 29.5312C23.0254 29.5312 29.5312 23.0254 29.5312 15C29.5312 6.97461 23.0254 0.46875 15 0.46875C6.97461 0.46875 0.46875 6.97461 0.46875 15C0.46875 23.0254 6.97461 29.5312 15 29.5312Z" fill="#286F5F"/>
<path d="M15 29.5312C23.0254 29.5312 29.5312 23.0254 29.5312 15C29.5312 6.97461 23.0254 0.46875 15 0.46875C6.97461 0.46875 0.46875 6.97461 0.46875 15C0.46875 23.0254 6.97461 29.5312 15 29.5312Z" fill="url(#paint0_linear_4015_37428)"/>
<path d="M15.4879 5.00977H14.5121C14.5121 10.2575 10.258 14.5121 5.00977 14.5121V15.4879C10.2575 15.4879 14.5121 19.742 14.5121 24.9902H15.4879C15.4879 19.7425 19.742 15.4879 24.9902 15.4879V14.5121C19.7425 14.5121 15.4879 10.258 15.4879 5.00977Z" fill="white"/>
</g>
<defs>
<linearGradient id="paint0_linear_4015_37428" x1="-2.5" y1="-7.5" x2="15" y2="24.5" gradientUnits="userSpaceOnUse">
<stop stop-color="#31EF8A"/>
<stop offset="0.967598" stop-color="#0E7D42"/>
</linearGradient>
<clipPath id="clip0_4015_37428">
<rect width="30" height="30" fill="white"/>
</clipPath>
</defs>
</svg>
