<svg width="20" height="20" viewBox="0 0 20 20" fill="none" xmlns="http://www.w3.org/2000/svg">
<g clip-path="url(#clip0_4092_25934)">
<path d="M18.3337 8.74935V9.99935C18.3337 13.9277 18.3337 15.8919 17.1133 17.1123C15.8929 18.3327 13.9287 18.3327 10.0003 18.3327C6.07195 18.3327 4.10777 18.3327 2.88738 17.1123C1.66699 15.8919 1.66699 13.9277 1.66699 9.99935C1.66699 6.07098 1.66699 4.10679 2.88738 2.8864C4.10777 1.66602 6.07195 1.66602 10.0003 1.66602H11.2503" stroke="var(--icon-color-2)" stroke-width="1.5" stroke-linecap="round"/>
<path d="M13.877 2.87857L14.4177 2.33789C15.3135 1.44206 16.766 1.44206 17.6618 2.33789C18.5576 3.23371 18.5576 4.68614 17.6618 5.58196L17.1211 6.12264M13.877 2.87857C13.877 2.87857 13.9446 4.02751 14.9584 5.04129C15.9722 6.05506 17.1211 6.12264 17.1211 6.12264M13.877 2.87857L8.90631 7.84929C8.56963 8.18597 8.40129 8.35431 8.25652 8.53992C8.08574 8.75887 7.93932 8.99578 7.81986 9.24645C7.71859 9.45894 7.6433 9.68479 7.49274 10.1365L7.01067 11.5827M17.1211 6.12264L12.1504 11.0934C11.8137 11.43 11.6454 11.5984 11.4598 11.7432C11.2408 11.9139 11.0039 12.0604 10.7532 12.1798C10.5407 12.2811 10.3149 12.3564 9.86318 12.5069L8.41699 12.989M8.41699 12.989L7.48123 13.3009C7.25895 13.375 7.01388 13.3172 6.84819 13.1515C6.68251 12.9858 6.62466 12.7407 6.69875 12.5184L7.01067 11.5827M8.41699 12.989L7.01067 11.5827" stroke="var(--icon-color-2)" stroke-width="1.5"/>
</g>
<defs>
<clipPath id="clip0_4092_25934">
<rect width="20" height="20" fill="white"/>
</clipPath>
</defs>
</svg>
