<svg width="20" height="20" viewBox="0 0 20 20" fill="none" xmlns="http://www.w3.org/2000/svg">
<g clip-path="url(#clip0_4354_98882)">
<path d="M18.3334 8.74935V9.99935C18.3334 13.9277 18.3334 15.8919 17.113 17.1123C15.8926 18.3327 13.9285 18.3327 10.0001 18.3327C6.07171 18.3327 4.10752 18.3327 2.88714 17.1123C1.66675 15.8919 1.66675 13.9277 1.66675 9.99935C1.66675 6.07098 1.66675 4.10679 2.88714 2.8864C4.10752 1.66602 6.07171 1.66602 10.0001 1.66602H11.2501" stroke="var(--color-13)" stroke-width="1.5" stroke-linecap="round"/>
<path d="M13.8768 2.87857L14.4175 2.33789C15.3133 1.44206 16.7657 1.44206 17.6615 2.33789C18.5574 3.23371 18.5574 4.68614 17.6615 5.58196L17.1209 6.12264M13.8768 2.87857C13.8768 2.87857 13.9444 4.02751 14.9581 5.04129C15.9719 6.05506 17.1209 6.12264 17.1209 6.12264M13.8768 2.87857L8.90606 7.84929C8.56938 8.18597 8.40105 8.35431 8.25627 8.53992C8.08549 8.75887 7.93908 8.99578 7.81961 9.24645C7.71834 9.45894 7.64306 9.68479 7.49249 10.1365L7.01043 11.5827M17.1209 6.12264L12.1501 11.0934C11.8135 11.43 11.6451 11.5984 11.4595 11.7432C11.2406 11.9139 11.0037 12.0604 10.753 12.1798C10.5405 12.2811 10.3146 12.3564 9.86294 12.5069L8.41675 12.989M8.41675 12.989L7.48099 13.3009C7.2587 13.375 7.01363 13.3172 6.84795 13.1515C6.68227 12.9858 6.62441 12.7407 6.69851 12.5184L7.01043 11.5827M8.41675 12.989L7.01043 11.5827" stroke="var(--color-13)" stroke-width="1.5"/>
</g>
<defs>
<clipPath id="clip0_4354_98882">
<rect width="20" height="20" fill="white"/>
</clipPath>
</defs>
</svg>
