<svg width="20" height="20" viewBox="0 0 20 20" fill="none" xmlns="http://www.w3.org/2000/svg">
<g clip-path="url(#clip0_6001_55443)">
<path d="M18.3327 8.74935V9.99935C18.3327 13.9277 18.3327 15.8919 17.1123 17.1123C15.8919 18.3327 13.9277 18.3327 9.99935 18.3327C6.07098 18.3327 4.10679 18.3327 2.8864 17.1123C1.66602 15.8919 1.66602 13.9277 1.66602 9.99935C1.66602 6.07098 1.66602 4.10679 2.8864 2.8864C4.10679 1.66602 6.07098 1.66602 9.99935 1.66602H11.2493" stroke="var(--project-icon-color)" stroke-width="1.5" stroke-linecap="round"/>
<path d="M13.8761 2.87857L14.4167 2.33789C15.3126 1.44206 16.765 1.44206 17.6608 2.33789C18.5566 3.23371 18.5566 4.68614 17.6608 5.58196L17.1201 6.12264M13.8761 2.87857C13.8761 2.87857 13.9436 4.02751 14.9574 5.04129C15.9712 6.05506 17.1201 6.12264 17.1201 6.12264M13.8761 2.87857L8.90533 7.84929C8.56865 8.18597 8.40031 8.35431 8.25554 8.53992C8.08476 8.75887 7.93834 8.99578 7.81888 9.24645C7.71761 9.45894 7.64233 9.68479 7.49176 10.1365L7.0097 11.5827M17.1201 6.12264L12.1494 11.0934C11.8127 11.43 11.6444 11.5984 11.4588 11.7432C11.2398 11.9139 11.0029 12.0604 10.7523 12.1798C10.5398 12.2811 10.3139 12.3564 9.8622 12.5069L8.41602 12.989M8.41602 12.989L7.48026 13.3009C7.25797 13.375 7.0129 13.3172 6.84722 13.1515C6.68154 12.9858 6.62368 12.7407 6.69778 12.5184L7.0097 11.5827M8.41602 12.989L7.0097 11.5827" stroke="var(--project-icon-color)" stroke-width="1.5"/>
</g>
<defs>
<clipPath id="clip0_6001_55443">
<rect width="20" height="20" fill="white"/>
</clipPath>
</defs>
</svg>
