<svg width="20" height="20" viewBox="0 0 20 20" fill="none" xmlns="http://www.w3.org/2000/svg">
<path d="M17.5559 9.88005L16.914 9.49217V9.49217L17.5559 9.88005ZM10.1191 2.44332L9.73125 1.80141V1.80141L10.1191 2.44332ZM18.3332 9.99935H17.5832C17.5832 14.1875 14.188 17.5827 9.99984 17.5827V18.3327V19.0827C15.0164 19.0827 19.0832 15.0159 19.0832 9.99935H18.3332ZM9.99984 18.3327V17.5827C5.81168 17.5827 2.4165 14.1875 2.4165 9.99935H1.6665H0.916504C0.916504 15.0159 4.98325 19.0827 9.99984 19.0827V18.3327ZM1.6665 9.99935H2.4165C2.4165 5.81119 5.81168 2.41602 9.99984 2.41602V1.66602V0.916016C4.98325 0.916016 0.916504 4.98276 0.916504 9.99935H1.6665ZM12.9165 12.4993V11.7493C10.3392 11.7493 8.24984 9.66001 8.24984 7.08268H7.49984H6.74984C6.74984 10.4884 9.51075 13.2493 12.9165 13.2493V12.4993ZM17.5559 9.88005L16.914 9.49217C16.0955 10.8466 14.6111 11.7493 12.9165 11.7493V12.4993V13.2493C15.1578 13.2493 17.119 12.0532 18.1978 10.2679L17.5559 9.88005ZM7.49984 7.08268H8.24984C8.24984 5.3881 9.1526 3.90365 10.507 3.08523L10.1191 2.44332L9.73125 1.80141C7.94603 2.88014 6.74984 4.84136 6.74984 7.08268H7.49984ZM9.99984 1.66602V2.41602C9.89202 2.41602 9.77302 2.36887 9.68669 2.27902C9.61188 2.20114 9.5903 2.12262 9.58458 2.08027C9.57579 2.01523 9.59114 1.88607 9.73125 1.80141L10.1191 2.44332L10.507 3.08523C10.9771 2.80115 11.1256 2.28334 11.0711 1.87951C11.0142 1.45838 10.6779 0.916016 9.99984 0.916016V1.66602ZM17.5559 9.88005L18.1978 10.2679C18.1131 10.408 17.984 10.4234 17.9189 10.4146C17.8766 10.4089 17.798 10.3873 17.7202 10.3125C17.6303 10.2262 17.5832 10.1072 17.5832 9.99935H18.3332H19.0832C19.0832 9.32128 18.5408 8.98498 18.1197 8.9281C17.7158 8.87357 17.198 9.02205 16.914 9.49217L17.5559 9.88005Z" fill="var(--icon-color-4)"/>
</svg>
