<svg width="20" height="20" viewBox="0 0 20 20" fill="none" xmlns="http://www.w3.org/2000/svg">
<g clip-path="url(#clip0_4038_16697)">
<path d="M1.66699 10.0211C1.66699 14.3096 4.8896 17.8435 9.03931 18.3212C9.65165 18.3917 10.2452 18.1307 10.681 17.6937C11.2256 17.1478 11.2256 16.2626 10.681 15.7166C10.2452 15.2797 9.88987 14.6278 10.2186 14.105C11.5324 12.0154 18.3337 16.8144 18.3337 10.0211C18.3337 5.40672 14.6027 1.66602 10.0003 1.66602C5.39795 1.66602 1.66699 5.40672 1.66699 10.0211Z" stroke="var(--color-14)" stroke-width="1.5"/>
<circle cx="14.583" cy="9.58398" r="0.75" stroke="var(--color-14)"/>
<circle cx="5.41699" cy="9.58398" r="0.75" stroke="var(--color-14)"/>
<path d="M7.9873 5.33398C8.26345 5.33398 8.4873 5.55784 8.4873 5.83398C8.4873 6.11013 8.26345 6.33398 7.9873 6.33398C7.71116 6.33398 7.4873 6.11013 7.4873 5.83398C7.4873 5.55784 7.71116 5.33398 7.9873 5.33398Z" stroke="var(--color-14)" stroke-width="1.5"/>
<path d="M12.083 5.33398C12.3592 5.33398 12.583 5.55784 12.583 5.83398C12.583 6.11013 12.3592 6.33398 12.083 6.33398C11.8069 6.33398 11.583 6.11013 11.583 5.83398C11.583 5.55784 11.8069 5.33398 12.083 5.33398Z" stroke="var(--color-14)" stroke-width="1.5"/>
</g>
<defs>
<clipPath id="clip0_4038_16697">
<rect width="20" height="20" rx="5" fill="white"/>
</clipPath>
</defs>
</svg>
