<svg width="19" height="19" viewBox="0 0 19 19" fill="none" xmlns="http://www.w3.org/2000/svg">
<path d="M1.97949 5.14616C1.97949 3.39726 3.39726 1.97949 5.14616 1.97949C6.89506 1.97949 8.31283 3.39726 8.31283 5.14616C8.31283 6.89506 6.89506 8.31283 5.14616 8.31283C3.39726 8.31283 1.97949 6.89506 1.97949 5.14616Z" stroke="var(--icon-color-2)" stroke-width="1.5"/>
<path d="M10.6875 13.8542C10.6875 12.1053 12.1053 10.6875 13.8542 10.6875C15.6031 10.6875 17.0208 12.1053 17.0208 13.8542C17.0208 15.6031 15.6031 17.0208 13.8542 17.0208C12.1053 17.0208 10.6875 15.6031 10.6875 13.8542Z" stroke="var(--icon-color-2)" stroke-width="1.5"/>
<path d="M17.0212 5.14616C17.0212 3.65338 17.0212 2.90699 16.5574 2.44324C16.0937 1.97949 15.3473 1.97949 13.8545 1.97949C12.3617 1.97949 11.6153 1.97949 11.1516 2.44324C10.6878 2.90699 10.6878 3.65338 10.6878 5.14616C10.6878 6.63894 10.6878 7.38533 11.1516 7.84908C11.6153 8.31283 12.3617 8.31283 13.8545 8.31283C15.3473 8.31283 16.0937 8.31283 16.5574 7.84908C17.0212 7.38533 17.0212 6.63894 17.0212 5.14616Z" stroke="var(--icon-color-2)" stroke-width="1.5"/>
<path d="M8.31283 13.8545C8.31283 12.3617 8.31283 11.6153 7.84908 11.1516C7.38533 10.6878 6.63894 10.6878 5.14616 10.6878C3.65338 10.6878 2.90699 10.6878 2.44324 11.1516C1.97949 11.6153 1.97949 12.3617 1.97949 13.8545C1.97949 15.3473 1.97949 16.0937 2.44324 16.5574C2.90699 17.0212 3.65338 17.0212 5.14616 17.0212C6.63894 17.0212 7.38533 17.0212 7.84908 16.5574C8.31283 16.0937 8.31283 15.3473 8.31283 13.8545Z" stroke="var(--icon-color-2)" stroke-width="1.5"/>
</svg>
