<svg width="20" height="20" viewBox="0 0 20 20" fill="none" xmlns="http://www.w3.org/2000/svg">
<path d="M3.3335 18.334H16.6668" stroke="var(--color-17)" stroke-width="1.5" stroke-linecap="round"/>
<path d="M11.5735 3.05179L12.1915 2.43387C13.2153 1.41006 14.8752 1.41006 15.899 2.43387C16.9228 3.45767 16.9228 5.11758 15.899 6.14139L15.2811 6.75931M11.5735 3.05179C11.5735 3.05179 11.6508 4.36487 12.8094 5.52347C13.968 6.68207 15.2811 6.75931 15.2811 6.75931M11.5735 3.05179L5.89271 8.73261C5.50794 9.11739 5.31555 9.30978 5.15009 9.52191C4.95492 9.77214 4.78759 10.0429 4.65106 10.3294C4.53532 10.5722 4.44928 10.8303 4.2772 11.3466L3.54803 13.5341M15.2811 6.75931L9.60023 12.4401C9.21546 12.8249 9.02307 13.0173 8.81094 13.1827C8.56071 13.3779 8.28996 13.5453 8.00348 13.6818C7.76063 13.7975 7.50251 13.8836 6.98628 14.0556L4.79878 14.7848M4.79878 14.7848L4.26406 14.963C4.01002 15.0477 3.72993 14.9816 3.54058 14.7923C3.35123 14.6029 3.28511 14.3228 3.3698 14.0688L3.54803 13.5341M4.79878 14.7848L3.54803 13.5341" stroke="var(--color-17)" stroke-width="1.5"/>
</svg>
