<svg width="16" height="16" viewBox="0 0 16 16" fill="none" xmlns="http://www.w3.org/2000/svg">
<path d="M2.66666 14.666H13.3333" stroke="var(--icon-color)" stroke-width="1.5" stroke-linecap="round"/>
<path d="M9.25869 2.4426L9.75303 1.94827C10.5721 1.12922 11.9 1.12922 12.719 1.94827C13.5381 2.76731 13.5381 4.09524 12.719 4.91428L12.2247 5.40862M9.25869 2.4426C9.25869 2.4426 9.32048 3.49307 10.2474 4.41994C11.1742 5.34682 12.2247 5.40862 12.2247 5.40862M9.25869 2.4426L4.71403 6.98726C4.40621 7.29508 4.2523 7.44899 4.11994 7.6187C3.9638 7.81888 3.82993 8.03548 3.72071 8.26466C3.62811 8.45895 3.55928 8.66544 3.42162 9.07842L2.83829 10.8284M12.2247 5.40862L7.68004 9.95328C7.37222 10.2611 7.21831 10.415 7.04861 10.5474C6.84843 10.7035 6.63183 10.8374 6.40264 10.9466C6.20836 11.0392 6.00187 11.108 5.58889 11.2457L3.83888 11.829M3.83888 11.829L3.41111 11.9716C3.20787 12.0394 2.98381 11.9865 2.83233 11.835C2.68085 11.6835 2.62795 11.4594 2.6957 11.2562L2.83829 10.8284M3.83888 11.829L2.83829 10.8284" stroke="var(--icon-color)" stroke-width="1.5"/>
</svg>
