<svg width="20" height="20" viewBox="0 0 20 20" fill="none" xmlns="http://www.w3.org/2000/svg">
<path d="M3.33301 18.334H16.6663" stroke="var(--color-14)" stroke-width="1.5" stroke-linecap="round"/>
<path d="M11.5731 3.05179L12.191 2.43387C13.2148 1.41006 14.8747 1.41006 15.8985 2.43387C16.9223 3.45767 16.9223 5.11758 15.8985 6.14139L15.2806 6.75931M11.5731 3.05179C11.5731 3.05179 11.6503 4.36487 12.8089 5.52347C13.9675 6.68207 15.2806 6.75931 15.2806 6.75931M11.5731 3.05179L5.89222 8.73261C5.50745 9.11739 5.31506 9.30978 5.14961 9.52191C4.95443 9.77214 4.7871 10.0429 4.65057 10.3294C4.53483 10.5722 4.44879 10.8303 4.27671 11.3466L3.54755 13.5341M15.2806 6.75931L9.59974 12.4401C9.21497 12.8249 9.02258 13.0173 8.81045 13.1827C8.56022 13.3779 8.28947 13.5453 8.00299 13.6818C7.76014 13.7975 7.50202 13.8836 6.98579 14.0556L4.79829 14.7848M4.79829 14.7848L4.26357 14.963C4.00953 15.0477 3.72945 14.9816 3.5401 14.7923C3.35074 14.6029 3.28463 14.3228 3.36931 14.0688L3.54755 13.5341M4.79829 14.7848L3.54755 13.5341" stroke="var(--color-14)" stroke-width="1.5"/>
</svg>
