<svg width="14" height="14" viewBox="0 0 14 14" fill="none" xmlns="http://www.w3.org/2000/svg">
<g clip-path="url(#clip0_4282_75085)">
<path d="M9.32745 2.88697L9.85805 2.35691V2.35691L9.32745 2.88697ZM11.1254 4.68679L10.5948 5.21685V5.21685L11.1254 4.68679ZM5.09771 11.3329L4.56711 11.863V11.863L5.09771 11.3329ZM2.69631 8.92909L3.22691 8.39903V8.39903L2.69631 8.92909ZM10.2477 8.74602L9.98392 8.04394H9.98392L10.2477 8.74602ZM9.12938 9.16621L9.39317 9.86829H9.39317L9.12938 9.16621ZM4.86077 4.88872L4.15655 4.6307V4.6307L4.86077 4.88872ZM5.26587 3.78306L5.97009 4.04108V4.04108L5.26587 3.78306ZM3.40993 6.22554L3.60927 6.94856H3.60927L3.40993 6.22554ZM4.25963 5.91151L3.82142 5.30284L3.82142 5.30284L4.25963 5.91151ZM4.47789 5.7104L5.04872 6.19687L5.04872 6.19687L4.47789 5.7104ZM8.31341 9.55463L8.80438 10.1216L8.80438 10.1216L8.31341 9.55463ZM7.80566 10.6167L7.08253 10.4177V10.4177L7.80566 10.6167ZM8.11852 9.76819L7.50915 9.33096L7.50915 9.33096L8.11852 9.76819ZM1.58609 7.43989L0.836109 7.44463V7.44463L1.58609 7.43989ZM1.70976 6.9714L1.05984 6.59709L1.05984 6.59709L1.70976 6.9714ZM6.59505 12.4495L6.59618 11.6995H6.59617L6.59505 12.4495ZM7.05473 12.3279L6.683 11.6765L6.683 11.6765L7.05473 12.3279ZM6.82372 1.18705L6.98531 1.91944H6.98531L6.82372 1.18705ZM0.636392 12.3026C0.343648 12.5957 0.34389 13.0705 0.636932 13.3633C0.929974 13.656 1.40485 13.6558 1.69759 13.3627L1.16699 12.8327L0.636392 12.3026ZM4.41197 10.6456C4.70472 10.3526 4.70448 9.87768 4.41143 9.58494C4.11839 9.29219 3.64352 9.29243 3.35077 9.58548L3.88137 10.1155L4.41197 10.6456ZM9.32745 2.88697L8.79685 3.41703L10.5948 5.21685L11.1254 4.68679L11.656 4.15673L9.85805 2.35691L9.32745 2.88697ZM5.09771 11.3329L5.62831 10.8029L3.22691 8.39903L2.69631 8.92909L2.16571 9.45915L4.56711 11.863L5.09771 11.3329ZM10.2477 8.74602L9.98392 8.04394L8.86559 8.46413L9.12938 9.16621L9.39317 9.86829L10.5115 9.4481L10.2477 8.74602ZM4.86077 4.88872L5.56499 5.14673L5.97009 4.04108L5.26587 3.78306L4.56165 3.52504L4.15655 4.6307L4.86077 4.88872ZM3.40993 6.22554L3.60927 6.94856C4.00161 6.84039 4.38341 6.74655 4.69784 6.52017L4.25963 5.91151L3.82142 5.30284C3.77675 5.33501 3.71178 5.36433 3.21059 5.50251L3.40993 6.22554ZM4.86077 4.88872L4.15655 4.6307C3.97757 5.11919 3.94291 5.18186 3.90706 5.22394L4.47789 5.7104L5.04872 6.19687C5.29994 5.90208 5.42485 5.52924 5.56499 5.14673L4.86077 4.88872ZM4.25963 5.91151L4.69784 6.52017C4.82738 6.42691 4.94519 6.31836 5.04872 6.19687L4.47789 5.7104L3.90706 5.22393C3.88177 5.25361 3.85302 5.2801 3.82142 5.30284L4.25963 5.91151ZM9.12938 9.16621L8.86559 8.46413C8.48558 8.6069 8.11478 8.73452 7.82244 8.98767L8.31341 9.55463L8.80438 10.1216C8.84597 10.0856 8.90784 10.0506 9.39317 9.86829L9.12938 9.16621ZM7.80566 10.6167L8.52879 10.8157C8.66642 10.3154 8.69568 10.2503 8.72789 10.2054L8.11852 9.76819L7.50915 9.33096C7.28378 9.64506 7.19032 10.026 7.08253 10.4177L7.80566 10.6167ZM8.31341 9.55463L7.82245 8.98767C7.70493 9.08943 7.59978 9.20466 7.50915 9.33096L8.11852 9.76819L8.72788 10.2054C8.75003 10.1746 8.77571 10.1464 8.80438 10.1216L8.31341 9.55463ZM2.69631 8.92909L3.22691 8.39903C2.84454 8.01626 2.6042 7.77405 2.45197 7.58279C2.29875 7.39029 2.33566 7.36902 2.33608 7.43516L1.58609 7.43989L0.836109 7.44463C0.838929 7.89102 1.06168 8.2447 1.27833 8.51691C1.49597 8.79035 1.80954 9.10261 2.16571 9.45915L2.69631 8.92909ZM3.40993 6.22554L3.2106 5.50251C2.725 5.63639 2.2982 5.75286 1.97396 5.88303C1.65117 6.01262 1.2827 6.21012 1.05984 6.59709L1.70976 6.9714L2.35968 7.3457C2.32654 7.40324 2.30468 7.36662 2.5328 7.27504C2.75947 7.18404 3.0879 7.0923 3.60927 6.94856L3.40993 6.22554ZM1.58609 7.43989L2.33608 7.43516C2.33588 7.40372 2.34405 7.37284 2.35968 7.3457L1.70976 6.9714L1.05984 6.59709C0.911429 6.85478 0.834231 7.1473 0.836109 7.44463L1.58609 7.43989ZM5.09771 11.3329L4.56711 11.863C4.92553 12.2218 5.23946 12.5377 5.51441 12.7567C5.78809 12.9746 6.1443 13.1988 6.59392 13.1995L6.59505 12.4495L6.59617 11.6995C6.66332 11.6996 6.64248 11.7375 6.44892 11.5833C6.25663 11.4302 6.01312 11.1881 5.62831 10.8029L5.09771 11.3329ZM7.80566 10.6167L7.08253 10.4177C6.93803 10.9429 6.84576 11.2739 6.75412 11.5022C6.66186 11.7321 6.62491 11.7097 6.683 11.6765L7.05473 12.3279L7.42647 12.9793C7.81684 12.7565 8.0158 12.3857 8.14616 12.061C8.27713 11.7347 8.39419 11.3049 8.52879 10.8157L7.80566 10.6167ZM6.59505 12.4495L6.59392 13.1995C6.8859 13.1999 7.1729 13.124 7.42647 12.9793L7.05473 12.3279L6.683 11.6765C6.6565 11.6916 6.62658 11.6995 6.59618 11.6995L6.59505 12.4495ZM11.1254 4.68679L10.5948 5.21685C11.2225 5.84517 11.6315 6.25733 11.8777 6.58969C12.1161 6.91138 12.0836 7.0033 12.0803 7.01871L12.8133 7.17722L13.5464 7.33573C13.6854 6.69282 13.419 6.15023 13.0829 5.69664C12.7547 5.25372 12.2485 4.74982 11.656 4.15673L11.1254 4.68679ZM10.2477 8.74602L10.5115 9.4481C11.2959 9.15338 11.965 8.90409 12.4469 8.63664C12.9405 8.3627 13.4074 7.97877 13.5464 7.33573L12.8133 7.17722L12.0803 7.01871C12.077 7.03399 12.0688 7.13097 11.719 7.3251C11.3575 7.52572 10.815 7.73168 9.98392 8.04394L10.2477 8.74602ZM9.32745 2.88697L9.85805 2.35691C9.26114 1.75938 8.75434 1.24927 8.30927 0.918831C7.85396 0.580799 7.3082 0.312125 6.66214 0.454664L6.82372 1.18705L6.98531 1.91944C6.99931 1.91635 7.09085 1.88245 7.41512 2.12319C7.74961 2.37153 8.16465 2.78419 8.79685 3.41703L9.32745 2.88697ZM5.26587 3.78306L5.97009 4.04108C6.27794 3.20087 6.48125 2.65172 6.6805 2.28555C6.87371 1.9305 6.97118 1.92255 6.98531 1.91944L6.82372 1.18705L6.66214 0.454664C6.01621 0.597175 5.63402 1.07044 5.36295 1.56859C5.09792 2.05563 4.85234 2.73166 4.56165 3.52504L5.26587 3.78306ZM1.16699 12.8327L1.69759 13.3627L4.41197 10.6456L3.88137 10.1155L3.35077 9.58548L0.636392 12.3026L1.16699 12.8327Z" fill="#A1A4A9"/>
<path d="M1.3125 1.3125L12.6875 13.125" stroke="#A1A4A9" stroke-width="1.5" stroke-linecap="round"/>
</g>
<defs>
<clipPath id="clip0_4282_75085">
<rect width="14" height="14" fill="white"/>
</clipPath>
</defs>
</svg>
