<svg width="20" height="20" viewBox="0 0 20 20" fill="none" xmlns="http://www.w3.org/2000/svg">
<g clip-path="url(#clip0_4297_96530)">
<path d="M13.3248 4.12452L13.8554 3.59446V3.59446L13.3248 4.12452ZM15.8934 6.6957L15.3628 7.22576V7.22576L15.8934 6.6957ZM7.2823 16.1902L6.7517 16.7202V16.7202L7.2823 16.1902ZM3.85173 12.7561L4.38233 12.2261V12.2261L3.85173 12.7561ZM14.6394 12.4946L14.3757 11.7925V11.7925L14.6394 12.4946ZM13.0418 13.0949L13.3056 13.7969V13.7969L13.0418 13.0949ZM6.94382 6.98416L6.2396 6.72614V6.72614L6.94382 6.98416ZM7.52254 5.40465L8.22676 5.66267V5.66267L7.52254 5.40465ZM4.87119 8.8939L5.07053 9.61693H5.07053L4.87119 8.8939ZM6.08505 8.44529L5.64684 7.83662L5.64684 7.83662L6.08505 8.44529ZM6.39684 8.158L6.96767 8.64447L6.96767 8.64447L6.39684 8.158ZM11.8762 13.6498L12.3671 14.2167L12.3671 14.2167L11.8762 13.6498ZM11.1508 15.167L10.4277 14.968L10.4277 14.968L11.1508 15.167ZM11.5977 13.9548L10.9884 13.5176L10.9884 13.5176L11.5977 13.9548ZM2.26571 10.6287L1.51572 10.6334L1.51572 10.6334L2.26571 10.6287ZM2.44237 9.95942L1.79245 9.58511L1.79245 9.58511L2.44237 9.95942ZM9.42136 17.7853L9.42249 17.0353H9.42248L9.42136 17.7853ZM10.0781 17.6116L9.70632 16.9602L9.70632 16.9602L10.0781 17.6116ZM9.74804 1.69607L9.90962 2.42845V2.42845L9.74804 1.69607ZM1.13639 17.8026C0.843648 18.0957 0.84389 18.5705 1.13693 18.8633C1.42997 19.156 1.90485 19.1558 2.19759 18.8627L1.66699 18.3327L1.13639 17.8026ZM6.07528 14.9811C6.36802 14.6881 6.36778 14.2132 6.07474 13.9204C5.7817 13.6277 5.30682 13.6279 5.01408 13.921L5.54468 14.451L6.07528 14.9811ZM13.3248 4.12452L12.7942 4.65458L15.3628 7.22576L15.8934 6.6957L16.424 6.16564L13.8554 3.59446L13.3248 4.12452ZM7.2823 16.1902L7.8129 15.6601L4.38233 12.2261L3.85173 12.7561L3.32113 13.2862L6.7517 16.7202L7.2823 16.1902ZM14.6394 12.4946L14.3757 11.7925L12.778 12.3928L13.0418 13.0949L13.3056 13.7969L14.9032 13.1967L14.6394 12.4946ZM6.94382 6.98416L7.64804 7.24218L8.22676 5.66267L7.52254 5.40465L6.81832 5.14663L6.2396 6.72614L6.94382 6.98416ZM4.87119 8.8939L5.07053 9.61693C5.65434 9.45597 6.13187 9.33573 6.52325 9.05396L6.08505 8.44529L5.64684 7.83662C5.52521 7.92419 5.36451 7.97991 4.67185 8.17088L4.87119 8.8939ZM6.94382 6.98416L6.2396 6.72614C5.99224 7.40128 5.92339 7.55727 5.82601 7.67153L6.39684 8.158L6.96767 8.64447C7.28042 8.27749 7.43951 7.81133 7.64804 7.24218L6.94382 6.98416ZM6.08505 8.44529L6.52325 9.05396C6.68732 8.93583 6.83654 8.79834 6.96767 8.64447L6.39684 8.158L5.82601 7.67153C5.77312 7.73359 5.71296 7.78902 5.64684 7.83662L6.08505 8.44529ZM13.0418 13.0949L12.778 12.3928C12.2126 12.6052 11.7491 12.7677 11.3852 13.0828L11.8762 13.6498L12.3671 14.2167C12.4803 14.1187 12.6349 14.049 13.3056 13.7969L13.0418 13.0949ZM11.1508 15.167L11.8739 15.3659C12.0642 14.6746 12.1197 14.5139 12.2071 14.3921L11.5977 13.9548L10.9884 13.5176C10.7078 13.9086 10.5881 14.3851 10.4277 14.968L11.1508 15.167ZM11.8762 13.6498L11.3852 13.0828C11.2364 13.2117 11.1032 13.3576 10.9884 13.5176L11.5977 13.9548L12.2071 14.3921C12.2534 14.3275 12.3071 14.2687 12.3671 14.2167L11.8762 13.6498ZM3.85173 12.7561L4.38233 12.2261C3.8417 11.6849 3.48267 11.3238 3.25118 11.033C3.0187 10.7409 3.01579 10.6393 3.01569 10.624L2.26571 10.6287L1.51572 10.6334C1.51906 11.1613 1.78163 11.5953 2.07754 11.9671C2.37444 12.3401 2.8067 12.7712 3.32113 13.2862L3.85173 12.7561ZM4.87119 8.8939L4.67185 8.17088C3.97048 8.36424 3.38185 8.52533 2.93956 8.70289C2.49871 8.87988 2.05597 9.12755 1.79245 9.58511L2.44237 9.95942L3.09229 10.3337C3.09981 10.3207 3.15222 10.2339 3.49839 10.0949C3.84312 9.95651 4.33338 9.82016 5.07053 9.61693L4.87119 8.8939ZM2.26571 10.6287L3.01569 10.624C3.01505 10.5221 3.04151 10.4219 3.09229 10.3337L2.44237 9.95942L1.79245 9.58511C1.60889 9.90384 1.5134 10.2657 1.51572 10.6334L2.26571 10.6287ZM7.2823 16.1902L6.7517 16.7202C7.26939 17.2385 7.70276 17.6739 8.07784 17.9727C8.45164 18.2704 8.88865 18.5345 9.42024 18.5353L9.42136 17.7853L9.42248 17.0353C9.40767 17.0353 9.30603 17.0332 9.01235 16.7993C8.71994 16.5664 8.35698 16.2048 7.8129 15.6601L7.2823 16.1902ZM11.1508 15.167L10.4277 14.968C10.2234 15.7106 10.0862 16.2046 9.9469 16.5517C9.80693 16.9004 9.71943 16.9527 9.70632 16.9602L10.0781 17.6116L10.4498 18.263C10.9114 17.9996 11.1609 17.5541 11.3389 17.1105C11.5176 16.6654 11.6795 16.0725 11.8739 15.3659L11.1508 15.167ZM9.42136 17.7853L9.42023 18.5353C9.7813 18.5358 10.1362 18.4419 10.4498 18.263L10.0781 17.6116L9.70632 16.9602C9.61981 17.0096 9.52197 17.0354 9.42249 17.0353L9.42136 17.7853ZM15.8934 6.6957L15.3628 7.22576C16.2519 8.11581 16.8569 8.72426 17.2263 9.22275C17.5878 9.71058 17.6054 9.93847 17.5716 10.0949L18.3046 10.2535L19.0377 10.412C19.2072 9.62798 18.8907 8.94942 18.4315 8.3297C17.9802 7.72065 17.2779 7.02045 16.424 6.16564L15.8934 6.6957ZM14.6394 12.4946L14.9032 13.1967C16.0338 12.7719 16.9626 12.425 17.6252 12.0573C18.2995 11.683 18.8681 11.1961 19.0377 10.412L18.3046 10.2535L17.5716 10.0949C17.5378 10.2513 17.4278 10.4513 16.8973 10.7458C16.3551 11.0467 15.5529 11.3502 14.3757 11.7925L14.6394 12.4946ZM13.3248 4.12452L13.8554 3.59446C12.9951 2.73329 12.2908 2.02543 11.6786 1.57097C11.0563 1.10892 10.374 0.789934 9.58645 0.96368L9.74804 1.69607L9.90962 2.42845C10.0651 2.39416 10.2932 2.41057 10.7845 2.77534C11.286 3.1477 11.8986 3.75809 12.7942 4.65458L13.3248 4.12452ZM7.52254 5.40465L8.22676 5.66267C8.66286 4.4724 8.96236 3.66071 9.2611 3.11172C9.5538 2.57384 9.75406 2.46278 9.90962 2.42845L9.74804 1.69607L9.58645 0.96368C8.79908 1.1374 8.31411 1.71378 7.94354 2.39475C7.57903 3.06462 7.23726 4.0032 6.81832 5.14663L7.52254 5.40465ZM1.66699 18.3327L2.19759 18.8627L6.07528 14.9811L5.54468 14.451L5.01408 13.921L1.13639 17.8026L1.66699 18.3327Z" fill="var(--pin-color)"/>
<path d="M1.875 1.875L18.125 18.75" stroke="var(--pin-color)" stroke-width="1.5" stroke-linecap="round"/>
</g>
<defs>
<clipPath id="clip0_4297_96530">
<rect width="20" height="20" fill="white"/>
</clipPath>
</defs>
</svg>
