<svg width="20" height="20" viewBox="0 0 20 20" fill="none" xmlns="http://www.w3.org/2000/svg">
<g clip-path="url(#clip0_4211_73648)">
<path d="M13.3243 4.12452L13.8549 3.59446V3.59446L13.3243 4.12452ZM15.8929 6.6957L15.3623 7.22576V7.22576L15.8929 6.6957ZM7.28182 16.1902L6.75122 16.7202V16.7202L7.28182 16.1902ZM3.85124 12.7561L4.38184 12.2261V12.2261L3.85124 12.7561ZM14.639 12.4946L14.3752 11.7925V11.7925L14.639 12.4946ZM13.0413 13.0949L13.3051 13.7969V13.7969L13.0413 13.0949ZM6.94333 6.98416L6.23911 6.72614V6.72614L6.94333 6.98416ZM7.52205 5.40465L8.22627 5.66267V5.66267L7.52205 5.40465ZM4.8707 8.8939L5.07004 9.61693H5.07004L4.8707 8.8939ZM6.08456 8.44529L5.64635 7.83662L5.64635 7.83662L6.08456 8.44529ZM6.39635 8.158L6.96718 8.64447L6.96718 8.64447L6.39635 8.158ZM11.8757 13.6498L12.3666 14.2167L12.3666 14.2167L11.8757 13.6498ZM11.1503 15.167L10.4272 14.968L10.4272 14.968L11.1503 15.167ZM11.5973 13.9548L10.9879 13.5176L10.9879 13.5176L11.5973 13.9548ZM2.26522 10.6287L1.51524 10.6334L1.51524 10.6334L2.26522 10.6287ZM2.44188 9.95942L1.79196 9.58511L1.79196 9.58511L2.44188 9.95942ZM9.42087 17.7853L9.422 17.0353H9.422L9.42087 17.7853ZM10.0776 17.6116L9.70583 16.9602L9.70583 16.9602L10.0776 17.6116ZM9.74755 1.69607L9.90913 2.42845V2.42845L9.74755 1.69607ZM1.1359 17.8026C0.84316 18.0957 0.843402 18.5705 1.13644 18.8633C1.42949 19.156 1.90436 19.1558 2.1971 18.8627L1.6665 18.3327L1.1359 17.8026ZM6.07479 14.9811C6.36754 14.6881 6.36729 14.2132 6.07425 13.9204C5.78121 13.6277 5.30634 13.6279 5.01359 13.921L5.54419 14.451L6.07479 14.9811ZM13.3243 4.12452L12.7937 4.65458L15.3623 7.22576L15.8929 6.6957L16.4235 6.16564L13.8549 3.59446L13.3243 4.12452ZM7.28182 16.1902L7.81242 15.6601L4.38184 12.2261L3.85124 12.7561L3.32064 13.2862L6.75122 16.7202L7.28182 16.1902ZM14.639 12.4946L14.3752 11.7925L12.7776 12.3928L13.0413 13.0949L13.3051 13.7969L14.9027 13.1967L14.639 12.4946ZM6.94333 6.98416L7.64755 7.24218L8.22627 5.66267L7.52205 5.40465L6.81783 5.14663L6.23911 6.72614L6.94333 6.98416ZM4.8707 8.8939L5.07004 9.61693C5.65385 9.45597 6.13138 9.33573 6.52277 9.05396L6.08456 8.44529L5.64635 7.83662C5.52472 7.92419 5.36402 7.97991 4.67137 8.17088L4.8707 8.8939ZM6.94333 6.98416L6.23911 6.72614C5.99175 7.40128 5.9229 7.55727 5.82552 7.67153L6.39635 8.158L6.96718 8.64447C7.27993 8.27749 7.43902 7.81133 7.64755 7.24218L6.94333 6.98416ZM6.08456 8.44529L6.52277 9.05396C6.68684 8.93583 6.83605 8.79834 6.96718 8.64447L6.39635 8.158L5.82552 7.67153C5.77263 7.73359 5.71247 7.78902 5.64635 7.83662L6.08456 8.44529ZM13.0413 13.0949L12.7776 12.3928C12.2121 12.6052 11.7486 12.7677 11.3847 13.0828L11.8757 13.6498L12.3666 14.2167C12.4798 14.1187 12.6344 14.049 13.3051 13.7969L13.0413 13.0949ZM11.1503 15.167L11.8734 15.3659C12.0637 14.6746 12.1192 14.5139 12.2066 14.3921L11.5973 13.9548L10.9879 13.5176C10.7073 13.9086 10.5876 14.3851 10.4272 14.968L11.1503 15.167ZM11.8757 13.6498L11.3847 13.0828C11.2359 13.2117 11.1027 13.3576 10.9879 13.5176L11.5973 13.9548L12.2066 14.3921C12.2529 14.3275 12.3066 14.2687 12.3666 14.2167L11.8757 13.6498ZM3.85124 12.7561L4.38184 12.2261C3.84121 11.6849 3.48218 11.3238 3.25069 11.033C3.01822 10.7409 3.0153 10.6393 3.01521 10.624L2.26522 10.6287L1.51524 10.6334C1.51857 11.1613 1.78114 11.5953 2.07705 11.9671C2.37395 12.3401 2.80622 12.7712 3.32064 13.2862L3.85124 12.7561ZM4.8707 8.8939L4.67137 8.17088C3.97 8.36424 3.38136 8.52533 2.93907 8.70289C2.49822 8.87988 2.05548 9.12755 1.79196 9.58511L2.44188 9.95942L3.0918 10.3337C3.09932 10.3207 3.15173 10.2339 3.4979 10.0949C3.84263 9.95651 4.33289 9.82016 5.07004 9.61693L4.8707 8.8939ZM2.26522 10.6287L3.01521 10.624C3.01456 10.5221 3.04102 10.4219 3.0918 10.3337L2.44188 9.95942L1.79196 9.58511C1.6084 9.90384 1.51291 10.2657 1.51524 10.6334L2.26522 10.6287ZM7.28182 16.1902L6.75122 16.7202C7.26891 17.2385 7.70228 17.6739 8.07735 17.9727C8.45116 18.2704 8.88816 18.5345 9.41975 18.5353L9.42087 17.7853L9.422 17.0353C9.40718 17.0353 9.30554 17.0332 9.01186 16.7993C8.71945 16.5664 8.35649 16.2048 7.81242 15.6601L7.28182 16.1902ZM11.1503 15.167L10.4272 14.968C10.2229 15.7106 10.0858 16.2046 9.94641 16.5517C9.80644 16.9004 9.71894 16.9527 9.70583 16.9602L10.0776 17.6116L10.4493 18.263C10.9109 17.9996 11.1604 17.5541 11.3384 17.1105C11.5171 16.6654 11.679 16.0725 11.8734 15.3659L11.1503 15.167ZM9.42087 17.7853L9.41974 18.5353C9.78081 18.5358 10.1357 18.4419 10.4493 18.263L10.0776 17.6116L9.70583 16.9602C9.61932 17.0096 9.52148 17.0354 9.422 17.0353L9.42087 17.7853ZM15.8929 6.6957L15.3623 7.22576C16.2514 8.11581 16.8564 8.72426 17.2258 9.22275C17.5873 9.71058 17.6049 9.93847 17.5711 10.0949L18.3041 10.2535L19.0372 10.412C19.2067 9.62798 18.8902 8.94942 18.431 8.3297C17.9797 7.72065 17.2774 7.02045 16.4235 6.16564L15.8929 6.6957ZM14.639 12.4946L14.9027 13.1967C16.0334 12.7719 16.9621 12.425 17.6247 12.0573C18.299 11.683 18.8677 11.1961 19.0372 10.412L18.3041 10.2535L17.5711 10.0949C17.5373 10.2513 17.4273 10.4513 16.8968 10.7458C16.3546 11.0467 15.5524 11.3502 14.3752 11.7925L14.639 12.4946ZM13.3243 4.12452L13.8549 3.59446C12.9946 2.73329 12.2903 2.02543 11.6782 1.57097C11.0558 1.10892 10.3735 0.789934 9.58597 0.96368L9.74755 1.69607L9.90913 2.42845C10.0646 2.39416 10.2927 2.41057 10.784 2.77534C11.2855 3.1477 11.8981 3.75809 12.7937 4.65458L13.3243 4.12452ZM7.52205 5.40465L8.22627 5.66267C8.66237 4.4724 8.96187 3.66071 9.26062 3.11172C9.55331 2.57384 9.75357 2.46278 9.90913 2.42845L9.74755 1.69607L9.58597 0.96368C8.79859 1.1374 8.31362 1.71378 7.94306 2.39475C7.57854 3.06462 7.23677 4.0032 6.81783 5.14663L7.52205 5.40465ZM1.6665 18.3327L2.1971 18.8627L6.07479 14.9811L5.54419 14.451L5.01359 13.921L1.1359 17.8026L1.6665 18.3327Z" fill="var(--pin-color)"/>
</g>
<defs>
<clipPath id="clip0_4211_73648">
<rect width="20" height="20" fill="white"/>
</clipPath>
</defs>
</svg>
