<svg width="48" height="48" viewBox="0 0 48 48" fill="none" xmlns="http://www.w3.org/2000/svg">
<rect width="48" height="48" rx="16" fill="url(#paint0_linear_8047_18672)"/>
<path d="M25 30C25 29.4477 24.5523 29 24 29C23.4477 29 23 29.4477 23 30V31.5035C22.5268 31.5145 22.091 31.5585 21.6802 31.7287C21.1237 31.9592 20.6984 32.3859 20.2191 32.8667L20.1211 32.965L19.7928 33.2932C19.4023 33.6838 19.4024 34.3169 19.7929 34.7074C20.1835 35.0979 20.8167 35.0979 21.2072 34.7073L21.5354 34.3791C22.1711 33.7432 22.3046 33.6348 22.4456 33.5764C22.542 33.5365 22.6525 33.5156 23 33.5063V34C23 34.5523 23.4477 35 24 35C24.5523 35 25 34.5523 25 34V33.5063C25.3473 33.5156 25.4577 33.5365 25.5541 33.5764C25.6951 33.6348 25.8285 33.7432 26.4643 34.379L26.7927 34.7074C27.1832 35.0979 27.8164 35.0979 28.2069 34.7074C28.5974 34.3169 28.5974 33.6837 28.2069 33.2932L27.8785 32.9647L27.7804 32.8665C27.3012 32.3858 26.8758 31.9591 26.3194 31.7286C25.9088 31.5585 25.473 31.5145 25 31.5035V30Z" fill="white"/>
<path d="M27.7764 13C30.8279 13 32.3537 13 33.3018 13.9609C34.2498 14.922 34.25 16.4689 34.25 19.5625V23.9375C34.25 27.0311 34.2498 28.578 33.3018 29.5391C32.3537 30.5 30.8279 30.5 27.7764 30.5H20.2236C17.1721 30.5 15.6463 30.5 14.6982 29.5391C13.7502 28.578 13.75 26.0311 13.75 22.9375V18.5625C13.75 15.4689 13.7502 14.922 14.6982 13.9609C15.6463 13 17.1721 13 20.2236 13H27.7764ZM20 20.5664C19.4477 20.5664 19 21.0141 19 21.5664V24.5664C19 25.1187 19.4477 25.5664 20 25.5664C20.5523 25.5664 21 25.1187 21 24.5664V21.5664C21 21.0141 20.5523 20.5664 20 20.5664ZM24 17.5664C23.4477 17.5664 23 18.0141 23 18.5664V24.5664C23 25.1187 23.4477 25.5664 24 25.5664C24.5523 25.5664 25 25.1187 25 24.5664V18.5664C25 18.0141 24.5523 17.5664 24 17.5664ZM28 21.5664C27.4477 21.5664 27 22.0141 27 22.5664V24.5664C27 25.1187 27.4477 25.5664 28 25.5664C28.5523 25.5664 29 25.1187 29 24.5664V22.5664C29 22.0141 28.5523 21.5664 28 21.5664Z" fill="white"/>
<defs>
<linearGradient id="paint0_linear_8047_18672" x1="12.75" y1="-1.8999e-07" x2="33.75" y2="48" gradientUnits="userSpaceOnUse">
<stop stop-color="#F58B27"/>
<stop offset="1" stop-color="#EA6105"/>
</linearGradient>
</defs>
</svg>
