<svg width="32" height="32" viewBox="0 0 32 32" fill="none" xmlns="http://www.w3.org/2000/svg">
<rect width="32" height="32" rx="16" fill="#EC7F19"/>
<path d="M16.8333 20.9993C16.8333 20.5391 16.4602 20.166 16 20.166C15.5398 20.166 15.1667 20.5391 15.1667 20.9993V22.2523C14.7724 22.2614 14.4091 22.2981 14.0668 22.4399C13.6031 22.632 13.2487 22.9876 12.8493 23.3883L12.7675 23.4702L12.494 23.7437C12.1686 24.0692 12.1687 24.5968 12.4941 24.9222C12.8196 25.2476 13.3472 25.2476 13.6726 24.9221L13.9461 24.6486C14.4759 24.1187 14.5871 24.0284 14.7047 23.9797C14.785 23.9464 14.877 23.929 15.1667 23.9213V24.3327C15.1667 24.7929 15.5398 25.166 16 25.166C16.4602 25.166 16.8333 24.7929 16.8333 24.3327V23.9213C17.1227 23.929 17.2147 23.9464 17.2951 23.9797C17.4126 24.0284 17.5238 24.1187 18.0536 24.6485L18.3273 24.9222C18.6527 25.2476 19.1803 25.2476 19.5058 24.9222C19.8312 24.5967 19.8312 24.0691 19.5058 23.7437L19.2321 23.47L19.1504 23.3881C18.751 22.9875 18.3965 22.6319 17.9329 22.4399C17.5906 22.2981 17.2275 22.2614 16.8333 22.2523V20.9993Z" fill="white"/>
<path fill-rule="evenodd" clip-rule="evenodd" d="M19.1465 6.83203C21.6895 6.83203 22.9619 6.83198 23.752 7.63281C24.542 8.43366 24.542 9.723 24.542 12.3008V15.9473C24.542 18.525 24.542 19.8144 23.752 20.6152C22.9619 21.4161 21.6895 21.416 19.1465 21.416H12.8535C10.3105 21.416 9.03809 21.4161 8.24805 20.6152C7.45801 19.8144 7.45801 17.6913 7.45801 15.1133V11.4678C7.45801 8.88978 7.45801 8.43369 8.24805 7.63281C9.03809 6.83198 10.3105 6.83203 12.8535 6.83203H19.1465ZM12.667 13.1377C12.2069 13.1377 11.8332 13.5106 11.833 13.9707V16.4707C11.833 16.9309 12.2068 17.3047 12.667 17.3047C13.1271 17.3045 13.5 16.9308 13.5 16.4707V13.9707C13.4998 13.5107 13.127 13.1379 12.667 13.1377ZM16 10.6377C15.5399 10.6377 15.1672 11.0106 15.167 11.4707V16.4707C15.167 16.9309 15.5398 17.3047 16 17.3047C16.4602 17.3047 16.833 16.9309 16.833 16.4707V11.4707C16.8328 11.0106 16.4601 10.6377 16 10.6377ZM19.333 13.9707C18.8729 13.9709 18.5 14.3446 18.5 14.8047V16.4707C18.5 16.9308 18.8729 17.3045 19.333 17.3047C19.7932 17.3047 20.167 16.9309 20.167 16.4707V14.8047C20.167 14.3445 19.7932 13.9707 19.333 13.9707Z" fill="white"/>
</svg>
