<svg width="16" height="16" viewBox="0 0 16 16" fill="none" xmlns="http://www.w3.org/2000/svg">
<g clip-path="url(#clip0_4211_64037)">
<path d="M13.9616 2.03813C15.6078 3.68435 14.2733 7.68793 10.9808 10.9804C7.68841 14.2728 3.68484 15.6074 2.03862 13.9611C0.392405 12.3149 1.72693 8.31132 5.01936 5.01888C8.3118 1.72643 12.3154 0.391905 13.9616 2.03813ZM2.03849 2.03822C0.392274 3.68444 1.7268 7.68803 5.01923 10.9805C8.31167 14.2729 12.3152 15.6074 13.9615 13.9612C15.6077 12.315 14.2732 8.31142 10.9807 5.01897C7.68828 1.72652 3.68471 0.391998 2.03849 2.03822Z" stroke="#DBDFE2"/>
<path d="M9.66671 7.99967C9.66671 8.92015 8.92052 9.66634 8.00004 9.66634C7.07957 9.66634 6.33337 8.92015 6.33337 7.99967C6.33337 7.0792 7.07957 6.33301 8.00004 6.33301C8.92052 6.33301 9.66671 7.0792 9.66671 7.99967Z" stroke="#DBDFE2"/>
</g>
<defs>
<clipPath id="clip0_4211_64037">
<rect width="16" height="16" fill="white"/>
</clipPath>
</defs>
</svg>
