<svg width="16" height="16" viewBox="0 0 16 16" fill="none" xmlns="http://www.w3.org/2000/svg">
<path d="M8 12V14.6667" stroke="#DBDFE2" stroke-linecap="round" stroke-linejoin="round"/>
<path d="M6.66671 12L3.33337 14.6667" stroke="#DBDFE2" stroke-linecap="round" stroke-linejoin="round"/>
<path d="M9.33337 12L12.6667 14.6667" stroke="#DBDFE2" stroke-linecap="round" stroke-linejoin="round"/>
<path d="M1.66663 7.99967C1.66663 9.88529 1.66663 10.8281 2.25241 11.4139C2.8382 11.9997 3.78101 11.9997 5.66663 11.9997H10.3333C12.2189 11.9997 13.1617 11.9997 13.7475 11.4139C14.3333 10.8281 14.3333 9.88529 14.3333 7.99967V5.33301C14.3333 3.44739 14.3333 2.50458 13.7475 1.91879C13.1617 1.33301 12.2189 1.33301 10.3333 1.33301H5.66663C3.78101 1.33301 2.8382 1.33301 2.25241 1.91879C1.66663 2.50458 1.66663 3.44739 1.66663 5.33301V7.99967Z" stroke="#DBDFE2"/>
<path d="M5.33337 8.66699V6.66699M8.00004 8.66699V4.66699M10.6667 8.66699V7.33366" stroke="#DBDFE2" stroke-linecap="round"/>
</svg>
