<svg width="16" height="16" viewBox="0 0 16 16" fill="none" xmlns="http://www.w3.org/2000/svg">
<g clip-path="url(#clip0_4211_64030)">
<path d="M1.58905 9.19565C1.2917 7.08661 1.14302 6.03209 1.77492 5.34954C2.40682 4.66699 3.53176 4.66699 5.78164 4.66699H10.2184C12.4683 4.66699 13.5933 4.66699 14.2252 5.34954C14.8571 6.03209 14.7084 7.08661 14.411 9.19565L14.1291 11.1956C13.8959 12.8496 13.7793 13.6765 13.1811 14.1718C12.583 14.667 11.7008 14.667 9.93646 14.667H6.06362C4.29924 14.667 3.41706 14.667 2.81893 14.1718C2.22081 13.6765 2.10421 12.8496 1.87103 11.1956L1.58905 9.19565Z" stroke="var(--pro-icon-color)"/>
<path d="M13.0413 4.66667C13.1937 3.79682 12.5244 3 11.6413 3H4.35875C3.47565 3 2.80631 3.79682 2.95873 4.66667" stroke="var(--pro-icon-color)"/>
<path d="M11.6666 2.99967C11.6855 2.82696 11.695 2.74057 11.6952 2.66924C11.6966 1.98682 11.1826 1.41344 10.5041 1.34062C10.4332 1.33301 10.3463 1.33301 10.1725 1.33301H5.82733C5.65356 1.33301 5.56668 1.33301 5.49575 1.34062C4.81723 1.41344 4.30321 1.98682 4.30469 2.66924C4.30485 2.74058 4.3143 2.82694 4.33322 2.99967" stroke="var(--pro-icon-color)"/>
<circle cx="11" cy="7.66699" r="1" stroke="var(--pro-icon-color)"/>
<path d="M13.3334 13.333L11.4106 11.9006C10.7905 11.4387 9.86708 11.3927 9.18455 11.7897L9.00668 11.8932C8.53237 12.1691 7.88708 12.1229 7.47716 11.7835L4.91837 9.66561C4.40765 9.24288 3.58842 9.2203 3.04486 9.61397L2.16223 10.2532" stroke="var(--pro-icon-color)" stroke-linecap="round"/>
</g>
<defs>
<clipPath id="clip0_4211_64030">
<rect width="16" height="16" fill="white"/>
</clipPath>
</defs>
</svg>
