<svg width="16" height="16" viewBox="0 0 16 16" fill="none" xmlns="http://www.w3.org/2000/svg">
<g clip-path="url(#clip0_4211_64033)">
<path d="M13.0413 4.66667C13.1937 3.79682 12.5244 3 11.6413 3H4.35875C3.47565 3 2.80631 3.79682 2.95873 4.66667" stroke="var(--pro-icon-color)"/>
<path d="M11.6666 2.99967C11.6855 2.82696 11.695 2.74057 11.6952 2.66924C11.6966 1.98682 11.1826 1.41344 10.5041 1.34062C10.4332 1.33301 10.3463 1.33301 10.1725 1.33301H5.82733C5.65356 1.33301 5.56668 1.33301 5.49575 1.34062C4.81723 1.41344 4.30321 1.98682 4.30469 2.66924C4.30485 2.74058 4.3143 2.82694 4.33322 2.99967" stroke="var(--pro-icon-color)"/>
<path d="M9.72076 9.07696C10.093 9.30774 10.093 9.90515 9.72076 10.1359L7.47305 11.5294C7.11125 11.7536 6.66663 11.4617 6.66663 10.9999L6.66663 8.21302C6.66663 7.75118 7.11125 7.45925 7.47305 7.68354L9.72076 9.07696Z" stroke="var(--pro-icon-color)"/>
<path d="M1.58905 9.19565C1.2917 7.08661 1.14302 6.03209 1.77492 5.34954C2.40682 4.66699 3.53176 4.66699 5.78164 4.66699H10.2184C12.4683 4.66699 13.5933 4.66699 14.2252 5.34954C14.8571 6.03209 14.7084 7.08661 14.411 9.19565L14.1291 11.1956C13.8959 12.8496 13.7793 13.6765 13.1811 14.1718C12.583 14.667 11.7008 14.667 9.93646 14.667H6.06362C4.29924 14.667 3.41706 14.667 2.81893 14.1718C2.22081 13.6765 2.10421 12.8496 1.87103 11.1956L1.58905 9.19565Z" stroke="var(--pro-icon-color)"/>
</g>
<defs>
<clipPath id="clip0_4211_64033">
<rect width="16" height="16" fill="white"/>
</clipPath>
</defs>
</svg>
