<svg width="16" height="16" viewBox="0 0 16 16" fill="none" xmlns="http://www.w3.org/2000/svg">
<path d="M6.52089 2.59384C6.8968 2.27349 7.08476 2.11331 7.28128 2.01938C7.73581 1.80213 8.26421 1.80213 8.71874 2.01938C8.91526 2.11331 9.10321 2.27349 9.47913 2.59384C9.62874 2.72134 9.70355 2.78509 9.78345 2.83864C9.96659 2.96139 10.1723 3.04659 10.3886 3.08929C10.4829 3.10792 10.5809 3.11574 10.7768 3.13137C11.2692 3.17066 11.5154 3.19031 11.7207 3.26285C12.1957 3.43063 12.5694 3.80427 12.7372 4.27929C12.8097 4.48466 12.8294 4.73083 12.8686 5.22317C12.8843 5.41912 12.8921 5.51709 12.9107 5.61145C12.9534 5.82775 13.0386 6.03343 13.1614 6.21657C13.2149 6.29646 13.2787 6.37127 13.4062 6.52089C13.7265 6.8968 13.8867 7.08476 13.9806 7.28128C14.1979 7.73581 14.1979 8.26421 13.9806 8.71874C13.8867 8.91526 13.7265 9.10321 13.4062 9.47913C13.2787 9.62874 13.2149 9.70355 13.1614 9.78345C13.0386 9.96659 12.9534 10.1723 12.9107 10.3886C12.8921 10.4829 12.8843 10.5809 12.8686 10.7768C12.8294 11.2692 12.8097 11.5154 12.7372 11.7207C12.5694 12.1957 12.1957 12.5694 11.7207 12.7372C11.5154 12.8097 11.2692 12.8294 10.7768 12.8686C10.5809 12.8843 10.4829 12.8921 10.3886 12.9107C10.1723 12.9534 9.96659 13.0386 9.78345 13.1614C9.70355 13.2149 9.62874 13.2787 9.47913 13.4062C9.10321 13.7265 8.91526 13.8867 8.71874 13.9806C8.26421 14.1979 7.73581 14.1979 7.28128 13.9806C7.08476 13.8867 6.8968 13.7265 6.52089 13.4062C6.37127 13.2787 6.29646 13.2149 6.21657 13.1614C6.03343 13.0386 5.82775 12.9534 5.61145 12.9107C5.51709 12.8921 5.41912 12.8843 5.22317 12.8686C4.73083 12.8294 4.48466 12.8097 4.27929 12.7372C3.80427 12.5694 3.43063 12.1957 3.26285 11.7207C3.19031 11.5154 3.17066 11.2692 3.13137 10.7768C3.11574 10.5809 3.10792 10.4829 3.08929 10.3886C3.04659 10.1723 2.96139 9.96659 2.83864 9.78345C2.78509 9.70355 2.72134 9.62874 2.59384 9.47913C2.27349 9.10321 2.11331 8.91526 2.01938 8.71874C1.80213 8.26421 1.80213 7.73581 2.01938 7.28128C2.11331 7.08476 2.27349 6.8968 2.59384 6.52089C2.72134 6.37127 2.78509 6.29646 2.83864 6.21657C2.96139 6.03343 3.04659 5.82775 3.08929 5.61145C3.10792 5.51709 3.11574 5.41912 3.13137 5.22317C3.17066 4.73083 3.19031 4.48466 3.26285 4.27929C3.43063 3.80427 3.80427 3.43063 4.27929 3.26285C4.48466 3.19031 4.73083 3.17066 5.22317 3.13137C5.41912 3.11574 5.51709 3.10792 5.61145 3.08929C5.82775 3.04659 6.03343 2.96139 6.21657 2.83864C6.29646 2.78509 6.37127 2.72134 6.52089 2.59384Z" stroke="var(--pro-icon-color)"/>
<path d="M5.66663 8.33301L6.99996 9.66634L10.3333 6.33301" stroke="var(--pro-icon-color)" stroke-linecap="round" stroke-linejoin="round"/>
</svg>
