<svg width="20" height="20" viewBox="0 0 20 20" fill="none" xmlns="http://www.w3.org/2000/svg">
<g clip-path="url(#clip0_4242_53221)">
<path d="M13.112 9.0734C13.796 9.47726 13.796 10.5227 13.112 10.9266L8.9818 13.3651C8.317 13.7576 7.5 13.2467 7.5 12.4385L7.5 7.56151C7.5 6.75329 8.31699 6.24241 8.9818 6.63492L13.112 9.0734Z" stroke="var(--color-14)" stroke-width="1.5"/>
<path d="M1.66602 9.99935C1.66602 6.07098 1.66602 4.10679 2.8864 2.8864C4.10679 1.66602 6.07098 1.66602 9.99935 1.66602C13.9277 1.66602 15.8919 1.66602 17.1123 2.8864C18.3327 4.10679 18.3327 6.07098 18.3327 9.99935C18.3327 13.9277 18.3327 15.8919 17.1123 17.1123C15.8919 18.3327 13.9277 18.3327 9.99935 18.3327C6.07098 18.3327 4.10679 18.3327 2.8864 17.1123C1.66602 15.8919 1.66602 13.9277 1.66602 9.99935Z" stroke="var(--color-14)" stroke-width="1.5"/>
</g>
<defs>
<clipPath id="clip0_4242_53221">
<rect width="20" height="20" fill="white"/>
</clipPath>
</defs>
</svg>
