<svg width="32" height="32" viewBox="0 0 32 32" fill="none" xmlns="http://www.w3.org/2000/svg">
<g clip-path="url(#clip0_4314_61734)">
<path d="M16 32C24.8366 32 32 24.8366 32 16C32 7.16344 24.8366 0 16 0C7.16344 0 0 7.16344 0 16C0 24.8366 7.16344 32 16 32Z" fill="url(#paint0_linear_4314_61734)"/>
<path d="M10.8301 17.1704L12.7283 22.4246C12.7283 22.4246 12.9657 22.9162 13.2198 22.9162C13.4739 22.9162 17.2538 18.9839 17.2538 18.9839L21.4571 10.8652L10.8978 15.8142L10.8301 17.1704Z" fill="#C8DAEA"/>
<path d="M13.3473 18.5176L12.9829 22.3904C12.9829 22.3904 12.8304 23.577 14.0168 22.3904C15.2032 21.2037 16.3388 20.2886 16.3388 20.2886" fill="#A9C6D8"/>
<path d="M10.8643 17.3564L6.95949 16.0841C6.95949 16.0841 6.49283 15.8948 6.64309 15.4655C6.67403 15.3769 6.73643 15.3016 6.92309 15.1721C7.78829 14.5691 22.9372 9.12414 22.9372 9.12414C22.9372 9.12414 23.365 8.98 23.6172 9.07587C23.6796 9.09519 23.7358 9.13074 23.78 9.17888C23.8241 9.22702 23.8547 9.28603 23.8686 9.34987C23.8958 9.46263 23.9072 9.57863 23.9024 9.69454C23.9012 9.7948 23.8891 9.88774 23.8799 10.0335C23.7876 11.5221 21.0266 22.6325 21.0266 22.6325C21.0266 22.6325 20.8614 23.2827 20.2695 23.3049C20.124 23.3096 19.9791 23.285 19.8434 23.2325C19.7077 23.18 19.5839 23.1007 19.4795 22.9993C18.318 22.0003 14.3036 19.3024 13.4166 18.7091C13.3966 18.6954 13.3797 18.6777 13.3671 18.657C13.3546 18.6363 13.3466 18.6131 13.3438 18.5891C13.3314 18.5265 13.3994 18.4491 13.3994 18.4491C13.3994 18.4491 20.3895 12.2357 20.5755 11.5835C20.5899 11.5329 20.5355 11.508 20.4624 11.5301C19.9982 11.7009 11.9499 16.7835 11.0616 17.3444C10.9977 17.3637 10.9301 17.3679 10.8643 17.3564Z" fill="white"/>
</g>
<defs>
<linearGradient id="paint0_linear_4314_61734" x1="16" y1="32" x2="16" y2="0" gradientUnits="userSpaceOnUse">
<stop stop-color="#1D93D2"/>
<stop offset="1" stop-color="#38B0E3"/>
</linearGradient>
<clipPath id="clip0_4314_61734">
<rect width="32" height="32" fill="white"/>
</clipPath>
</defs>
</svg>
