<svg width="20" height="20" viewBox="0 0 20 20" fill="none" xmlns="http://www.w3.org/2000/svg">
<path d="M5.55838 7.58175C6.11493 7.39623 6.39321 7.30347 6.62432 7.14538C6.829 7.00537 7.00586 6.82851 7.14587 6.62383C7.30396 6.39273 7.39672 6.11445 7.58223 5.55789L8.89062 1.63272C9.04982 1.15514 9.49675 0.833008 10.0002 0.833008C10.5036 0.833008 10.9505 1.15514 11.1097 1.63272L12.4181 5.55789C12.6036 6.11445 12.6964 6.39273 12.8545 6.62383C12.9945 6.82851 13.1713 7.00537 13.376 7.14538C13.6071 7.30347 13.8854 7.39623 14.442 7.58175L18.3671 8.89013C18.8447 9.04933 19.1668 9.49626 19.1668 9.99967C19.1668 10.5031 18.8447 10.95 18.3671 11.1092L14.442 12.4176C13.8854 12.6031 13.6071 12.6959 13.376 12.854C13.1713 12.994 12.9945 13.1708 12.8545 13.3755C12.6964 13.6066 12.6036 13.8849 12.4181 14.4415L11.1097 18.3666C10.9505 18.8442 10.5036 19.1663 10.0002 19.1663C9.49675 19.1663 9.04982 18.8442 8.89062 18.3666L7.58223 14.4415C7.39671 13.8849 7.30396 13.6066 7.14587 13.3755C7.00586 13.1708 6.829 12.994 6.62432 12.854C6.39322 12.6959 6.11494 12.6031 5.55838 12.4176L1.63321 11.1092C1.15563 10.95 0.833496 10.5031 0.833496 9.99967C0.833496 9.49626 1.15563 9.04933 1.63321 8.89013L5.55838 7.58175Z" fill="var(--success-color-2)"/>
<path d="M5.55838 7.58175C6.11493 7.39623 6.39321 7.30347 6.62432 7.14538C6.829 7.00537 7.00586 6.82851 7.14587 6.62383C7.30396 6.39273 7.39672 6.11445 7.58223 5.55789L8.89062 1.63272C9.04982 1.15514 9.49675 0.833008 10.0002 0.833008C10.5036 0.833008 10.9505 1.15514 11.1097 1.63272L12.4181 5.55789C12.6036 6.11445 12.6964 6.39273 12.8545 6.62383C12.9945 6.82851 13.1713 7.00537 13.376 7.14538C13.6071 7.30347 13.8854 7.39623 14.442 7.58175L18.3671 8.89013C18.8447 9.04933 19.1668 9.49626 19.1668 9.99967C19.1668 10.5031 18.8447 10.95 18.3671 11.1092L14.442 12.4176C13.8854 12.6031 13.6071 12.6959 13.376 12.854C13.1713 12.994 12.9945 13.1708 12.8545 13.3755C12.6964 13.6066 12.6036 13.8849 12.4181 14.4415L11.1097 18.3666C10.9505 18.8442 10.5036 19.1663 10.0002 19.1663C9.49675 19.1663 9.04982 18.8442 8.89062 18.3666L7.58223 14.4415C7.39671 13.8849 7.30396 13.6066 7.14587 13.3755C7.00586 13.1708 6.829 12.994 6.62432 12.854C6.39322 12.6959 6.11494 12.6031 5.55838 12.4176L1.63321 11.1092C1.15563 10.95 0.833496 10.5031 0.833496 9.99967C0.833496 9.49626 1.15563 9.04933 1.63321 8.89013L5.55838 7.58175Z" fill="var(--success-color-2)"/>
</svg>
