<svg width="30" height="30" viewBox="0 0 30 30" fill="none" xmlns="http://www.w3.org/2000/svg">
<path d="M9.09627 11.1201C9.65283 10.9346 9.93111 10.8418 10.1622 10.6838C10.3669 10.5437 10.5437 10.3669 10.6838 10.1622C10.8418 9.93111 10.9346 9.65283 11.1201 9.09627L13.3357 2.44957C13.5745 1.7332 14.2449 1.25 15 1.25C15.7551 1.25 16.4255 1.7332 16.6643 2.44957L18.8799 9.09627C19.0654 9.65283 19.1582 9.93111 19.3162 10.1622C19.4563 10.3669 19.6331 10.5437 19.8378 10.6838C20.0689 10.8418 20.3472 10.9346 20.9037 11.1201L27.5504 13.3357C28.2668 13.5745 28.75 14.2449 28.75 15C28.75 15.7551 28.2668 16.4255 27.5504 16.6643L20.9037 18.8799C20.3472 19.0654 20.0689 19.1582 19.8378 19.3162C19.6331 19.4563 19.4563 19.6331 19.3162 19.8378C19.1582 20.0689 19.0654 20.3472 18.8799 20.9037L16.6643 27.5504C16.4255 28.2668 15.7551 28.75 15 28.75C14.2449 28.75 13.5745 28.2668 13.3357 27.5504L11.1201 20.9037C10.9346 20.3472 10.8418 20.0689 10.6838 19.8378C10.5437 19.6331 10.3669 19.4563 10.1622 19.3162C9.93111 19.1582 9.65283 19.0654 9.09627 18.8799L2.44957 16.6643C1.7332 16.4255 1.25 15.7551 1.25 15C1.25 14.2449 1.7332 13.5745 2.44957 13.3357L9.09627 11.1201Z" fill="#286F5F"/>
<path d="M9.09627 11.1201C9.65283 10.9346 9.93111 10.8418 10.1622 10.6838C10.3669 10.5437 10.5437 10.3669 10.6838 10.1622C10.8418 9.93111 10.9346 9.65283 11.1201 9.09627L13.3357 2.44957C13.5745 1.7332 14.2449 1.25 15 1.25C15.7551 1.25 16.4255 1.7332 16.6643 2.44957L18.8799 9.09627C19.0654 9.65283 19.1582 9.93111 19.3162 10.1622C19.4563 10.3669 19.6331 10.5437 19.8378 10.6838C20.0689 10.8418 20.3472 10.9346 20.9037 11.1201L27.5504 13.3357C28.2668 13.5745 28.75 14.2449 28.75 15C28.75 15.7551 28.2668 16.4255 27.5504 16.6643L20.9037 18.8799C20.3472 19.0654 20.0689 19.1582 19.8378 19.3162C19.6331 19.4563 19.4563 19.6331 19.3162 19.8378C19.1582 20.0689 19.0654 20.3472 18.8799 20.9037L16.6643 27.5504C16.4255 28.2668 15.7551 28.75 15 28.75C14.2449 28.75 13.5745 28.2668 13.3357 27.5504L11.1201 20.9037C10.9346 20.3472 10.8418 20.0689 10.6838 19.8378C10.5437 19.6331 10.3669 19.4563 10.1622 19.3162C9.93111 19.1582 9.65283 19.0654 9.09627 18.8799L2.44957 16.6643C1.7332 16.4255 1.25 15.7551 1.25 15C1.25 14.2449 1.7332 13.5745 2.44957 13.3357L9.09627 11.1201Z" fill="#0E7D42"/>
</svg>
