<svg width="22" height="22" viewBox="0 0 22 22" fill="none" xmlns="http://www.w3.org/2000/svg">
<path d="M5.97343 7.99729C6.52999 7.81177 6.80827 7.71901 7.03937 7.56093C7.24406 7.42092 7.42092 7.24406 7.56093 7.03937C7.71901 6.80827 7.81177 6.52999 7.99729 5.97343L9.66855 0.959653C9.85958 0.386557 10.3959 0 11 0C11.6041 0 12.1404 0.386558 12.3314 0.959654L14.0027 5.97344C14.1882 6.52999 14.281 6.80827 14.4391 7.03937C14.5791 7.24406 14.7559 7.42092 14.9606 7.56093C15.1917 7.71901 15.47 7.81177 16.0266 7.99729L21.0403 9.66855C21.6134 9.85958 22 10.3959 22 11C22 11.6041 21.6134 12.1404 21.0403 12.3314L16.0266 14.0027C15.47 14.1882 15.1917 14.281 14.9606 14.4391C14.7559 14.5791 14.5791 14.7559 14.4391 14.9606C14.281 15.1917 14.1882 15.47 14.0027 16.0266L12.3314 21.0403C12.1404 21.6134 11.6041 22 11 22C10.3959 22 9.85958 21.6134 9.66855 21.0403L7.99729 16.0266C7.81177 15.47 7.71901 15.1917 7.56093 14.9606C7.42092 14.7559 7.24406 14.5791 7.03937 14.4391C6.80827 14.281 6.52999 14.1882 5.97344 14.0027L0.959653 12.3314C0.386557 12.1404 0 11.6041 0 11C0 10.3959 0.386558 9.85958 0.959654 9.66855L5.97343 7.99729Z" fill="#286F5F"/>
<path d="M5.97343 7.99729C6.52999 7.81177 6.80827 7.71901 7.03937 7.56093C7.24406 7.42092 7.42092 7.24406 7.56093 7.03937C7.71901 6.80827 7.81177 6.52999 7.99729 5.97343L9.66855 0.959653C9.85958 0.386557 10.3959 0 11 0C11.6041 0 12.1404 0.386558 12.3314 0.959654L14.0027 5.97344C14.1882 6.52999 14.281 6.80827 14.4391 7.03937C14.5791 7.24406 14.7559 7.42092 14.9606 7.56093C15.1917 7.71901 15.47 7.81177 16.0266 7.99729L21.0403 9.66855C21.6134 9.85958 22 10.3959 22 11C22 11.6041 21.6134 12.1404 21.0403 12.3314L16.0266 14.0027C15.47 14.1882 15.1917 14.281 14.9606 14.4391C14.7559 14.5791 14.5791 14.7559 14.4391 14.9606C14.281 15.1917 14.1882 15.47 14.0027 16.0266L12.3314 21.0403C12.1404 21.6134 11.6041 22 11 22C10.3959 22 9.85958 21.6134 9.66855 21.0403L7.99729 16.0266C7.81177 15.47 7.71901 15.1917 7.56093 14.9606C7.42092 14.7559 7.24406 14.5791 7.03937 14.4391C6.80827 14.281 6.52999 14.1882 5.97344 14.0027L0.959653 12.3314C0.386557 12.1404 0 11.6041 0 11C0 10.3959 0.386558 9.85958 0.959654 9.66855L5.97343 7.99729Z" fill="#0E7D42"/>
</svg>
