<svg width="64" height="64" viewBox="0 0 64 64" fill="none" xmlns="http://www.w3.org/2000/svg">
<path d="M17.1718 10.2245C17.8909 7.25892 22.1087 7.25892 22.8279 10.2245L24.8066 18.3847C25.0633 19.4435 25.89 20.2702 26.9488 20.5269L35.1089 22.5056C38.0746 23.2248 38.0746 27.4426 35.1089 28.1617L26.9488 30.1404C25.89 30.3971 25.0633 31.2238 24.8066 32.2826L22.8279 40.4428C22.1087 43.4084 17.8909 43.4084 17.1718 40.4428L15.1931 32.2826C14.9364 31.2238 14.1097 30.3971 13.0508 30.1404L4.89073 28.1617C1.9251 27.4426 1.9251 23.2248 4.89072 22.5056L13.0508 20.5269C14.1097 20.2702 14.9364 19.4435 15.1931 18.3847L17.1718 10.2245Z" fill="#286F5F"/>
<path d="M17.1718 10.2245C17.8909 7.25892 22.1087 7.25892 22.8279 10.2245L24.8066 18.3847C25.0633 19.4435 25.89 20.2702 26.9488 20.5269L35.1089 22.5056C38.0746 23.2248 38.0746 27.4426 35.1089 28.1617L26.9488 30.1404C25.89 30.3971 25.0633 31.2238 24.8066 32.2826L22.8279 40.4428C22.1087 43.4084 17.8909 43.4084 17.1718 40.4428L15.1931 32.2826C14.9364 31.2238 14.1097 30.3971 13.0508 30.1404L4.89073 28.1617C1.9251 27.4426 1.9251 23.2248 4.89072 22.5056L13.0508 20.5269C14.1097 20.2702 14.9364 19.4435 15.1931 18.3847L17.1718 10.2245Z" fill="#0E7D42"/>
<path d="M40.9262 38.7024C41.3687 36.8774 43.9643 36.8774 44.4068 38.7024L45.6245 43.724C45.7825 44.3756 46.2912 44.8843 46.9428 45.0423L51.9644 46.26C53.7894 46.7025 53.7894 49.2981 51.9644 49.7406L46.9428 50.9583C46.2912 51.1163 45.7825 51.625 45.6245 52.2766L44.4068 57.2982C43.9643 59.1232 41.3687 59.1232 40.9262 57.2982L39.7085 52.2766C39.5505 51.625 39.0418 51.1163 38.3902 50.9583L33.3686 49.7406C31.5436 49.2981 31.5436 46.7025 33.3686 46.26L38.3902 45.0423C39.0418 44.8843 39.5505 44.3756 39.7085 43.724L40.9262 38.7024Z" fill="#286F5F"/>
<path d="M40.9262 38.7024C41.3687 36.8774 43.9643 36.8774 44.4068 38.7024L45.6245 43.724C45.7825 44.3756 46.2912 44.8843 46.9428 45.0423L51.9644 46.26C53.7894 46.7025 53.7894 49.2981 51.9644 49.7406L46.9428 50.9583C46.2912 51.1163 45.7825 51.625 45.6245 52.2766L44.4068 57.2982C43.9643 59.1232 41.3687 59.1232 40.9262 57.2982L39.7085 52.2766C39.5505 51.625 39.0418 51.1163 38.3902 50.9583L33.3686 49.7406C31.5436 49.2981 31.5436 46.7025 33.3686 46.26L38.3902 45.0423C39.0418 44.8843 39.5505 44.3756 39.7085 43.724L40.9262 38.7024Z" fill="#0E7D42"/>
<path d="M49.5244 9.89857C49.8148 8.70091 51.5182 8.70091 51.8086 9.89857L52.6077 13.194C52.7114 13.6216 53.0452 13.9555 53.4728 14.0591L56.7682 14.8582C57.9659 15.1487 57.9659 16.852 56.7682 17.1424L53.4728 17.9415C53.0452 18.0452 52.7114 18.379 52.6077 18.8066L51.8086 22.1021C51.5182 23.2997 49.8148 23.2997 49.5244 22.1021L48.7253 18.8066C48.6216 18.379 48.2878 18.0452 47.8602 17.9415L44.5647 17.1424C43.3671 16.852 43.3671 15.1487 44.5647 14.8582L47.8602 14.0591C48.2878 13.9555 48.6216 13.6216 48.7253 13.194L49.5244 9.89857Z" fill="#286F5F"/>
<path d="M49.5244 9.89857C49.8148 8.70091 51.5182 8.70091 51.8086 9.89857L52.6077 13.194C52.7114 13.6216 53.0452 13.9555 53.4728 14.0591L56.7682 14.8582C57.9659 15.1487 57.9659 16.852 56.7682 17.1424L53.4728 17.9415C53.0452 18.0452 52.7114 18.379 52.6077 18.8066L51.8086 22.1021C51.5182 23.2997 49.8148 23.2997 49.5244 22.1021L48.7253 18.8066C48.6216 18.379 48.2878 18.0452 47.8602 17.9415L44.5647 17.1424C43.3671 16.852 43.3671 15.1487 44.5647 14.8582L47.8602 14.0591C48.2878 13.9555 48.6216 13.6216 48.7253 13.194L49.5244 9.89857Z" fill="#0E7D42"/>
<path fill-rule="evenodd" clip-rule="evenodd" d="M50.6665 10.4832L50.0143 13.1729C49.7536 14.248 48.9142 15.0874 47.8391 15.3481L45.1494 16.0003L47.8391 16.6525C48.9142 16.9132 49.7536 17.7526 50.0143 18.8277L50.6665 21.5174L51.3187 18.8277C51.5794 17.7526 52.4188 16.9132 53.4939 16.6525L56.1836 16.0003L53.4939 15.3481C52.4188 15.0874 51.5794 14.248 51.3187 13.1729L50.6665 10.4832ZM51.9717 9.02689C51.6398 7.65814 49.6931 7.65814 49.3612 9.02689L48.448 12.7931C48.3295 13.2818 47.9479 13.6633 47.4593 13.7818L43.6931 14.6951C42.3243 15.027 42.3243 16.9737 43.6931 17.3056L47.4593 18.2188C47.9479 18.3373 48.3295 18.7189 48.448 19.2075L49.3612 22.9738C49.6931 24.3425 51.6398 24.3425 51.9717 22.9738L52.885 19.2075C53.0035 18.7189 53.385 18.3373 53.8737 18.2188L57.6399 17.3056C59.0087 16.9737 59.0087 15.027 57.6399 14.6951L53.8737 13.7818C53.385 13.6633 53.0035 13.2818 52.885 12.7931L51.9717 9.02689Z" fill="#286F5F"/>
<path fill-rule="evenodd" clip-rule="evenodd" d="M50.6665 10.4832L50.0143 13.1729C49.7536 14.248 48.9142 15.0874 47.8391 15.3481L45.1494 16.0003L47.8391 16.6525C48.9142 16.9132 49.7536 17.7526 50.0143 18.8277L50.6665 21.5174L51.3187 18.8277C51.5794 17.7526 52.4188 16.9132 53.4939 16.6525L56.1836 16.0003L53.4939 15.3481C52.4188 15.0874 51.5794 14.248 51.3187 13.1729L50.6665 10.4832ZM51.9717 9.02689C51.6398 7.65814 49.6931 7.65814 49.3612 9.02689L48.448 12.7931C48.3295 13.2818 47.9479 13.6633 47.4593 13.7818L43.6931 14.6951C42.3243 15.027 42.3243 16.9737 43.6931 17.3056L47.4593 18.2188C47.9479 18.3373 48.3295 18.7189 48.448 19.2075L49.3612 22.9738C49.6931 24.3425 51.6398 24.3425 51.9717 22.9738L52.885 19.2075C53.0035 18.7189 53.385 18.3373 53.8737 18.2188L57.6399 17.3056C59.0087 16.9737 59.0087 15.027 57.6399 14.6951L53.8737 13.7818C53.385 13.6633 53.0035 13.2818 52.885 12.7931L51.9717 9.02689Z" fill="#0E7D42"/>
<path d="M18.6665 61.3336C17.1937 61.3336 15.9998 60.1397 15.9998 58.667C15.9998 57.1942 17.1937 56.0003 18.6665 56.0003C20.1393 56.0003 21.3332 57.1942 21.3332 58.667C21.3332 60.1397 20.1393 61.3336 18.6665 61.3336Z" fill="#286F5F"/>
<path d="M18.6665 61.3336C17.1937 61.3336 15.9998 60.1397 15.9998 58.667C15.9998 57.1942 17.1937 56.0003 18.6665 56.0003C20.1393 56.0003 21.3332 57.1942 21.3332 58.667C21.3332 60.1397 20.1393 61.3336 18.6665 61.3336Z" fill="#0E7D42"/>
<path d="M5.33317 50.667C3.86041 50.667 2.6665 49.4731 2.6665 48.0003C2.6665 46.5276 3.86041 45.3336 5.33317 45.3336C6.80593 45.3336 7.99984 46.5276 7.99984 48.0003C7.99984 49.4731 6.80593 50.667 5.33317 50.667Z" fill="#286F5F"/>
<path d="M5.33317 50.667C3.86041 50.667 2.6665 49.4731 2.6665 48.0003C2.6665 46.5276 3.86041 45.3336 5.33317 45.3336C6.80593 45.3336 7.99984 46.5276 7.99984 48.0003C7.99984 49.4731 6.80593 50.667 5.33317 50.667Z" fill="#0E7D42"/>
<path d="M34.6665 8.00032C33.1937 8.00032 31.9998 6.80642 31.9998 5.33366C31.9998 3.8609 33.1937 2.66699 34.6665 2.66699C36.1393 2.66699 37.3332 3.8609 37.3332 5.33366C37.3332 6.80642 36.1393 8.00032 34.6665 8.00032Z" fill="#286F5F"/>
<path d="M34.6665 8.00032C33.1937 8.00032 31.9998 6.80642 31.9998 5.33366C31.9998 3.8609 33.1937 2.66699 34.6665 2.66699C36.1393 2.66699 37.3332 3.8609 37.3332 5.33366C37.3332 6.80642 36.1393 8.00032 34.6665 8.00032Z" fill="#0E7D42"/>
<path d="M58.6665 37.3336C57.1937 37.3336 55.9998 36.1397 55.9998 34.667C55.9998 33.1942 57.1937 32.0003 58.6665 32.0003C60.1392 32.0003 61.3332 33.1942 61.3332 34.667C61.3332 36.1397 60.1392 37.3336 58.6665 37.3336Z" fill="#286F5F"/>
<path d="M58.6665 37.3336C57.1937 37.3336 55.9998 36.1397 55.9998 34.667C55.9998 33.1942 57.1937 32.0003 58.6665 32.0003C60.1392 32.0003 61.3332 33.1942 61.3332 34.667C61.3332 36.1397 60.1392 37.3336 58.6665 37.3336Z" fill="#0E7D42"/>
</svg>
