<svg width="20" height="20" viewBox="0 0 20 20" fill="none" xmlns="http://www.w3.org/2000/svg">
<path d="M2.5 5.32099C2.5 4.91728 2.78782 4.59001 3.14286 4.59001L5.36306 4.58961C5.80419 4.5769 6.19335 4.25796 6.34345 3.78611C6.3474 3.77371 6.35193 3.75841 6.36821 3.70288L6.46388 3.37648C6.52242 3.17635 6.57342 3.002 6.64479 2.84616C6.92674 2.23048 7.4484 1.80295 8.05122 1.69349C8.20381 1.66578 8.3654 1.6659 8.55088 1.66603H11.4493C11.6347 1.6659 11.7963 1.66578 11.9489 1.69349C12.5517 1.80295 13.0734 2.23048 13.3554 2.84616C13.4267 3.002 13.4777 3.17635 13.5363 3.37648L13.6319 3.70288C13.6482 3.75841 13.6527 3.77371 13.6567 3.78611C13.8068 4.25796 14.2732 4.57729 14.7143 4.59001H16.8571C17.2122 4.59001 17.5 4.91728 17.5 5.32099C17.5 5.72471 17.2122 6.05198 16.8571 6.05198H3.14286C2.78782 6.05198 2.5 5.72471 2.5 5.32099Z" fill="var(--color-13)"/>
<path fill-rule="evenodd" clip-rule="evenodd" d="M9.663 18.3328H10.337C12.6559 18.3328 13.8154 18.3328 14.5693 17.5945C15.3231 16.8562 15.4003 15.6452 15.5545 13.2232L15.7768 9.73329C15.8605 8.41913 15.9023 7.76205 15.5241 7.34566C15.1459 6.92928 14.5073 6.92928 13.23 6.92928H6.77004C5.49272 6.92928 4.85407 6.92928 4.47588 7.34566C4.09769 7.76205 4.13953 8.41913 4.22323 9.73329L4.44549 13.2232C4.59975 15.6452 4.67687 16.8562 5.43074 17.5945C6.18461 18.3328 7.34407 18.3328 9.663 18.3328ZM8.53856 10.1565C8.50422 9.79498 8.19794 9.5312 7.85448 9.56735C7.51101 9.60351 7.26042 9.9259 7.29477 10.2874L7.71143 14.6734C7.74578 15.035 8.05206 15.2987 8.39552 15.2626C8.73899 15.2264 8.98958 14.904 8.95523 14.5425L8.53856 10.1565ZM12.1455 9.56735C12.489 9.60351 12.7396 9.9259 12.7052 10.2874L12.2886 14.6734C12.2542 15.035 11.9479 15.2987 11.6045 15.2626C11.261 15.2264 11.0104 14.904 11.0448 14.5425L11.4614 10.1565C11.4958 9.79498 11.8021 9.5312 12.1455 9.56735Z" fill="var(--color-13)"/>
</svg>
