<svg width="20" height="20" viewBox="0 0 20 20" fill="none" xmlns="http://www.w3.org/2000/svg">
<path d="M17.0828 5H2.91602" stroke="var(--project-icon-color)" stroke-width="1.5" stroke-linecap="round"/>
<path d="M15.6936 7.08398L15.3103 12.8332C15.1628 15.0457 15.089 16.1519 14.3682 16.8263C13.6474 17.5007 12.5387 17.5007 10.3214 17.5007H9.6769C7.45956 17.5007 6.35089 17.5007 5.63005 16.8263C4.90921 16.1519 4.83547 15.0457 4.68797 12.8332L4.30469 7.08398" stroke="var(--project-icon-color)" stroke-width="1.5" stroke-linecap="round"/>
<path d="M7.91602 9.16602L8.33268 13.3327" stroke="var(--project-icon-color)" stroke-width="1.5" stroke-linecap="round"/>
<path d="M12.0827 9.16602L11.666 13.3327" stroke="var(--project-icon-color)" stroke-width="1.5" stroke-linecap="round"/>
<path d="M5.41602 5C5.46258 5 5.48587 5 5.50697 4.99947C6.19318 4.98208 6.79854 4.54576 7.03203 3.90027C7.03921 3.88041 7.04657 3.85832 7.0613 3.81415L7.14221 3.57143C7.21127 3.36423 7.24581 3.26063 7.29161 3.17267C7.47436 2.82173 7.81247 2.57803 8.20319 2.51564C8.30112 2.5 8.41033 2.5 8.62873 2.5H11.37C11.5884 2.5 11.6976 2.5 11.7955 2.51564C12.1862 2.57803 12.5243 2.82173 12.7071 3.17267C12.7529 3.26063 12.7874 3.36423 12.8565 3.57143L12.9374 3.81415C12.9521 3.85826 12.9595 3.88042 12.9667 3.90027C13.2002 4.54576 13.8055 4.98208 14.4917 4.99947C14.5128 5 14.5361 5 14.5827 5" stroke="var(--project-icon-color)" stroke-width="1.5"/>
</svg>
