<svg width="16" height="16" viewBox="0 0 16 16" fill="none" xmlns="http://www.w3.org/2000/svg">
    <path d="M13.6674 4H2.33398" stroke=" var(--icon-color-1)" stroke-width="1.5" stroke-linecap="round"/>
    <path d="M12.5564 5.66602L12.2498 10.2654C12.1318 12.0354 12.0728 12.9203 11.4961 13.4598C10.9195 13.9993 10.0325 13.9993 8.25866 13.9993H7.74308C5.96921 13.9993 5.08228 13.9993 4.50561 13.4598C3.92893 12.9203 3.86994 12.0354 3.75194 10.2654L3.44531 5.66602"
          stroke=" var(--icon-color-1)" stroke-width="1.5" stroke-linecap="round"/>
    <path d="M6.33398 7.33398L6.66732 10.6673" stroke=" var(--icon-color-1)" stroke-width="1.5" stroke-linecap="round"/>
    <path d="M9.66732 7.33398L9.33398 10.6673" stroke=" var(--icon-color-1)" stroke-width="1.5" stroke-linecap="round"/>
    <path d="M4.33398 4C4.37124 4 4.38986 4 4.40675 3.99957C4.95571 3.98566 5.44 3.63661 5.6268 3.12021C5.63254 3.10433 5.63843 3.08666 5.65021 3.05132L5.71494 2.85714C5.77019 2.69139 5.79782 2.6085 5.83446 2.53813C5.98066 2.25738 6.25115 2.06242 6.56372 2.01251C6.64207 2 6.72943 2 6.90416 2H9.09714C9.27187 2 9.35923 2 9.43758 2.01251C9.75016 2.06242 10.0206 2.25738 10.1668 2.53813C10.2035 2.6085 10.2311 2.69138 10.2864 2.85714L10.3511 3.05132C10.3629 3.08661 10.3688 3.10434 10.3745 3.12021C10.5613 3.63661 11.0456 3.98566 11.5946 3.99957C11.6114 4 11.6301 4 11.6673 4"
          stroke=" var(--icon-color-1)" stroke-width="1.5"/>
</svg>

