<svg width="20" height="20" viewBox="0 0 20 20" fill="none" xmlns="http://www.w3.org/2000/svg">
<path d="M17.0837 5H2.91699" stroke="var(--cancel-color-2)" stroke-width="1.5" stroke-linecap="round"/>
<path d="M15.6946 7.08398L15.3113 12.8332C15.1638 15.0457 15.09 16.1519 14.3692 16.8263C13.6483 17.5007 12.5397 17.5007 10.3223 17.5007H9.67787C7.46054 17.5007 6.35187 17.5007 5.63103 16.8263C4.91019 16.1519 4.83644 15.0457 4.68895 12.8332L4.30566 7.08398" stroke="var(--cancel-color-2)" stroke-width="1.5" stroke-linecap="round"/>
<path d="M7.91699 9.16602L8.33366 13.3327" stroke="var(--cancel-color-2)" stroke-width="1.5" stroke-linecap="round"/>
<path d="M12.0837 9.16602L11.667 13.3327" stroke="var(--cancel-color-2)" stroke-width="1.5" stroke-linecap="round"/>
<path d="M5.41699 5C5.46356 5 5.48684 5 5.50795 4.99947C6.19415 4.98208 6.79951 4.54576 7.03301 3.90027C7.04019 3.88041 7.04755 3.85832 7.06228 3.81415L7.14318 3.57143C7.21225 3.36423 7.24678 3.26063 7.29259 3.17267C7.47533 2.82173 7.81345 2.57803 8.20417 2.51564C8.3021 2.5 8.4113 2.5 8.62971 2.5H11.3709C11.5893 2.5 11.6986 2.5 11.7965 2.51564C12.1872 2.57803 12.5253 2.82173 12.7081 3.17267C12.7539 3.26063 12.7884 3.36423 12.8575 3.57143L12.9384 3.81415C12.9531 3.85826 12.9605 3.88042 12.9676 3.90027C13.2011 4.54576 13.8065 4.98208 14.4927 4.99947C14.5138 5 14.5371 5 14.5837 5" stroke="var(--cancel-color-2)" stroke-width="1.5"/>
</svg>
