<svg width="20" height="20" viewBox="0 0 20 20" fill="none" xmlns="http://www.w3.org/2000/svg">
<path d="M8.15086 3.24206C8.62076 2.84161 8.8557 2.64139 9.10135 2.52398C9.66951 2.25242 10.33 2.25242 10.8982 2.52398C11.1438 2.64139 11.3788 2.84162 11.8487 3.24206C12.0357 3.40143 12.1292 3.48112 12.2291 3.54806C12.458 3.70149 12.7151 3.80799 12.9855 3.86137C13.1034 3.88465 13.2259 3.89443 13.4708 3.91397C14.0862 3.96308 14.3939 3.98764 14.6507 4.07832C15.2444 4.28804 15.7115 4.75509 15.9212 5.34886C16.0119 5.60558 16.0364 5.91329 16.0856 6.52871C16.1051 6.77365 16.1149 6.89612 16.1382 7.01407C16.1915 7.28444 16.298 7.54154 16.4515 7.77047C16.5184 7.87034 16.5981 7.96385 16.7575 8.15086C17.1579 8.62076 17.3581 8.85571 17.4755 9.10135C17.7471 9.66951 17.7471 10.33 17.4755 10.8982C17.3581 11.1438 17.1579 11.3788 16.7575 11.8487C16.5981 12.0357 16.5184 12.1292 16.4515 12.2291C16.298 12.458 16.1915 12.7151 16.1382 12.9855C16.1149 13.1034 16.1051 13.2259 16.0856 13.4708C16.0364 14.0862 16.0119 14.3939 15.9212 14.6507C15.7115 15.2444 15.2444 15.7115 14.6507 15.9212C14.3939 16.0119 14.0862 16.0364 13.4708 16.0856C13.2259 16.1051 13.1034 16.1149 12.9855 16.1382C12.7151 16.1915 12.458 16.298 12.2291 16.4515C12.1292 16.5184 12.0357 16.5981 11.8487 16.7575C11.3788 17.1579 11.1438 17.3581 10.8982 17.4755C10.33 17.7471 9.66951 17.7471 9.10135 17.4755C8.85571 17.3581 8.62076 17.1579 8.15086 16.7575C7.96384 16.5981 7.87034 16.5184 7.77047 16.4515C7.54154 16.298 7.28444 16.1915 7.01407 16.1382C6.89612 16.1149 6.77365 16.1051 6.52871 16.0856C5.91329 16.0364 5.60558 16.0119 5.34886 15.9212C4.75509 15.7115 4.28804 15.2444 4.07832 14.6507C3.98764 14.3939 3.96308 14.0862 3.91397 13.4708C3.89443 13.2259 3.88465 13.1034 3.86137 12.9855C3.80799 12.7151 3.70149 12.458 3.54806 12.2291C3.48112 12.1292 3.40143 12.0357 3.24206 11.8487C2.84161 11.3788 2.64139 11.1438 2.52398 10.8982C2.25242 10.33 2.25242 9.66951 2.52398 9.10135C2.64139 8.8557 2.84162 8.62076 3.24206 8.15086C3.40143 7.96385 3.48112 7.87034 3.54806 7.77047C3.70149 7.54154 3.80799 7.28444 3.86137 7.01407C3.88465 6.89612 3.89443 6.77365 3.91397 6.52871C3.96308 5.9133 3.98764 5.60559 4.07832 5.34886C4.28804 4.75509 4.75509 4.28804 5.34886 4.07832C5.60559 3.98764 5.9133 3.96308 6.52871 3.91397C6.77365 3.89443 6.89612 3.88465 7.01407 3.86137C7.28444 3.80799 7.54154 3.70149 7.77047 3.54806C7.87034 3.48112 7.96385 3.40143 8.15086 3.24206Z" stroke="var(--color-14)"/>
<path d="M7.0835 10.416L8.75016 12.0827L12.9168 7.91602" stroke="var(--color-14)" stroke-linecap="round" stroke-linejoin="round"/>
</svg>
