<svg width="20" height="20" viewBox="0 0 20 20" fill="none" xmlns="http://www.w3.org/2000/svg">
<path d="M14.1667 7.91618L14.7154 7.64186C16.337 6.83107 17.1477 6.42568 17.7406 6.79207C18.3334 7.15847 18.3334 8.06495 18.3334 9.87793V10.1211C18.3334 11.9341 18.3334 12.8406 17.7406 13.2069C17.1477 13.5733 16.337 13.1679 14.7154 12.3572L14.1667 12.0828V7.91618Z" stroke="#3E3E3F" stroke-width="1.5"/>
<path d="M11.3006 6.2001C11.7888 6.68826 11.7888 7.47971 11.3006 7.96787C10.8125 8.45602 10.021 8.45602 9.53286 7.96787C9.04471 7.47971 9.04471 6.68826 9.53286 6.2001C10.021 5.71195 10.8125 5.71195 11.3006 6.2001Z" stroke="#3E3E3F" stroke-width="1.5"/>
<path d="M1.66675 9.58398C1.66675 6.84442 1.66675 5.47463 2.42338 4.55267C2.56189 4.38389 2.71666 4.22913 2.88544 4.09062C3.8074 3.33398 5.17718 3.33398 7.91675 3.33398C10.6563 3.33398 12.0261 3.33398 12.9481 4.09062C13.1168 4.22913 13.2716 4.38389 13.4101 4.55267C14.1667 5.47463 14.1667 6.84442 14.1667 9.58398V10.4173C14.1667 13.1569 14.1667 14.5267 13.4101 15.4486C13.2716 15.6174 13.1168 15.7722 12.9481 15.9107C12.0261 16.6673 10.6563 16.6673 7.91675 16.6673C5.17718 16.6673 3.8074 16.6673 2.88544 15.9107C2.71666 15.7722 2.56189 15.6174 2.42338 15.4486C1.66675 14.5267 1.66675 13.1569 1.66675 10.4173V9.58398Z" stroke="#3E3E3F" stroke-width="1.5"/>
</svg>
