<svg width="20" height="20" viewBox="0 0 20 20" fill="none" xmlns="http://www.w3.org/2000/svg">
<path d="M16.3018 5.83333C16.4923 4.74603 15.6556 3.75 14.5517 3.75H5.44855C4.34468 3.75 3.50801 4.74603 3.69853 5.83333" stroke="var(--color-14)"/>
<path d="M14.5833 3.74935C14.6069 3.53345 14.6187 3.42547 14.6189 3.3363C14.6208 2.48328 13.9783 1.76655 13.1301 1.67553C13.0415 1.66602 12.9329 1.66602 12.7156 1.66602H7.28416C7.06695 1.66602 6.95835 1.66602 6.86969 1.67553C6.02153 1.76655 5.37901 2.48328 5.38086 3.3363C5.38106 3.42548 5.39288 3.53343 5.41653 3.74935" stroke="var(--color-14)"/>
<path d="M12.1512 11.346C12.6165 11.6344 12.6165 12.3812 12.1512 12.6697L9.34153 14.4114C8.88928 14.6918 8.3335 14.3269 8.3335 13.7496L8.3335 10.266C8.3335 9.68873 8.88927 9.32382 9.34153 9.60418L12.1512 11.346Z" stroke="var(--color-14)"/>
<path d="M1.9861 11.4948C1.61441 8.85851 1.42856 7.54036 2.21844 6.68717C3.00831 5.83398 4.41448 5.83398 7.22683 5.83398H12.7728C15.5852 5.83398 16.9914 5.83398 17.7812 6.68717C18.5711 7.54036 18.3853 8.85851 18.0136 11.4948L17.6611 13.9948C17.3696 16.0622 17.2239 17.0959 16.4762 17.7149C15.7286 18.334 14.6258 18.334 12.4204 18.334H7.57931C5.37384 18.334 4.27111 18.334 3.52345 17.7149C2.77579 17.0959 2.63005 16.0622 2.33857 13.9948L1.9861 11.4948Z" stroke="var(--color-14)"/>
</svg>
