<svg width="20" height="20" viewBox="0 0 20 20" fill="none" xmlns="http://www.w3.org/2000/svg">
<path d="M3.33301 9.16602H13.333C14.9044 9.16602 15.69 9.16602 16.1782 9.65417C16.6663 10.1423 16.6663 10.928 16.6663 12.4993V13.3327C16.6663 15.6897 16.6663 16.8682 15.9341 17.6004C15.2019 18.3327 14.0234 18.3327 11.6663 18.3327H8.33301C5.97599 18.3327 4.79747 18.3327 4.06524 17.6004C3.33301 16.8682 3.33301 15.6897 3.33301 13.3327V9.16602Z" stroke="#A1A4A9" stroke-width="1.5"/>
<path d="M3.33465 9.16573C2.93149 7.66111 2.72991 6.90881 2.90328 6.26176C3.01686 5.83787 3.24002 5.45135 3.55033 5.14104C4.024 4.66737 4.77631 4.46579 6.28092 4.06263L12.1167 2.49893C12.6778 2.3486 12.9583 2.27344 13.204 2.25733C14.213 2.1912 15.1624 2.73938 15.6097 3.64626C15.7186 3.86709 15.7937 4.14761 15.9441 4.70864C15.9942 4.89565 16.0192 4.98915 16.0246 5.07105C16.0466 5.40738 15.8639 5.72387 15.5616 5.87295C15.488 5.90925 15.3945 5.9343 15.2075 5.98441L3.33465 9.16573Z" stroke="#A1A4A9" stroke-width="1.5"/>
<path d="M12.2505 2.45145L11.719 6.9075" stroke="#A1A4A9" stroke-width="1.5" stroke-linecap="round"/>
<path d="M7.01808 3.85379L6.48662 8.30985" stroke="#A1A4A9" stroke-width="1.5" stroke-linecap="round"/>
</svg>
