<svg width="48" height="48" viewBox="0 0 48 48" fill="none" xmlns="http://www.w3.org/2000/svg">
<rect width="48" height="48" rx="16" fill="url(#paint0_linear_8047_14444)"/>
<path fill-rule="evenodd" clip-rule="evenodd" d="M14 24.5V23.5C14 20.2125 14 18.5688 14.908 17.4624C15.0742 17.2599 15.2599 17.0742 15.4624 16.908C16.5688 16 18.2125 16 21.5 16C24.7875 16 26.4312 16 27.5376 16.908C27.7401 17.0742 27.9258 17.2599 28.092 17.4624C28.7936 18.3173 28.9531 19.493 28.9893 21.5L29.6584 21.1708C31.6042 20.1979 32.5772 19.7114 33.2886 20.1511C34 20.5907 34 21.6785 34 23.8541V24.1459C34 26.3215 34 27.4093 33.2886 27.8489C32.5772 28.2886 31.6042 27.8021 29.6584 26.8292L28.9893 26.5C28.9531 28.507 28.7936 29.6827 28.092 30.5376C27.9258 30.7401 27.7401 30.9258 27.5376 31.092C26.4312 32 24.7875 32 21.5 32C18.2125 32 16.5688 32 15.4624 31.092C15.2599 30.9258 15.0742 30.7401 14.908 30.5376C14 29.4312 14 27.7875 14 24.5ZM25.5607 21.5607C26.1464 20.9749 26.1464 20.0251 25.5607 19.4393C24.9749 18.8536 24.0251 18.8536 23.4393 19.4393C22.8536 20.0251 22.8536 20.9749 23.4393 21.5607C24.0251 22.1464 24.9749 22.1464 25.5607 21.5607Z" fill="white"/>
<defs>
<linearGradient id="paint0_linear_8047_14444" x1="10.5" y1="1.06171e-07" x2="39" y2="48" gradientUnits="userSpaceOnUse">
<stop stop-color="#FB5150"/>
<stop offset="0.946688" stop-color="#EF2221"/>
</linearGradient>
</defs>
</svg>
