<svg width="32" height="32" viewBox="0 0 32 32" fill="none" xmlns="http://www.w3.org/2000/svg">
<rect width="32" height="32" rx="16" fill="#EC3332"/>
<path fill-rule="evenodd" clip-rule="evenodd" d="M7.66699 16.4173V15.584C7.66699 12.8444 7.66699 11.4746 8.42362 10.5527C8.56214 10.3839 8.7169 10.2291 8.88568 10.0906C9.80764 9.33398 11.1774 9.33398 13.917 9.33398C16.6566 9.33398 18.0263 9.33398 18.9483 10.0906C19.1171 10.2291 19.2718 10.3839 19.4104 10.5527C19.995 11.2651 20.1279 12.2448 20.1581 13.9173L20.7156 13.643C22.3372 12.8322 23.148 12.4268 23.7408 12.7932C24.3337 13.1596 24.3337 14.0661 24.3337 15.8791V16.1222C24.3337 17.9352 24.3337 18.8417 23.7408 19.2081C23.148 19.5745 22.3372 19.1691 20.7156 18.3583L20.1581 18.084C20.1279 19.7565 19.995 20.7362 19.4104 21.4486C19.2718 21.6174 19.1171 21.7722 18.9483 21.9107C18.0263 22.6673 16.6566 22.6673 13.917 22.6673C11.1774 22.6673 9.80764 22.6673 8.88568 21.9107C8.7169 21.7722 8.56214 21.6174 8.42362 21.4486C7.66699 20.5267 7.66699 19.1569 7.66699 16.4173ZM17.3009 13.9679C17.789 13.4797 17.789 12.6883 17.3009 12.2001C16.8127 11.7119 16.0213 11.7119 15.5331 12.2001C15.045 12.6883 15.045 13.4797 15.5331 13.9679C16.0213 14.456 16.8127 14.456 17.3009 13.9679Z" fill="white"/>
</svg>
