<svg width="64" height="64" viewBox="0 0 64 64" fill="none" xmlns="http://www.w3.org/2000/svg">
<path d="M5.3335 32.0006C5.3335 19.4299 5.3335 13.1445 9.23874 9.23923C13.144 5.33398 19.4294 5.33398 32.0002 5.33398C44.5709 5.33398 50.8563 5.33398 54.7616 9.23923C58.6668 13.1445 58.6668 19.4299 58.6668 32.0006C58.6668 44.5714 58.6668 50.8568 54.7616 54.7621C50.8563 58.6673 44.5709 58.6673 32.0002 58.6673C19.4294 58.6673 13.144 58.6673 9.23874 54.7621C5.3335 50.8568 5.3335 44.5714 5.3335 32.0006Z" stroke="var(--color-14)" stroke-width="3"/>
<path d="M57.3332 21.334H6.6665" stroke="var(--color-14)" stroke-width="3" stroke-linecap="round"/>
<path d="M27.9998 6.66602L18.6665 21.3327" stroke="var(--color-14)" stroke-width="3" stroke-linecap="round"/>
<path d="M45.3333 6.66602L36 21.3327" stroke="var(--color-14)" stroke-width="3" stroke-linecap="round"/>
<path d="M39.9998 38.666C39.9998 36.9771 38.2345 35.838 34.7037 33.5599C31.1248 31.2507 29.3353 30.0961 28.0009 30.9438C26.6665 31.7916 26.6665 34.0831 26.6665 38.666C26.6665 43.249 26.6665 45.5404 28.0009 46.3882C29.3353 47.2359 31.1248 46.0813 34.7037 43.7721C38.2345 41.494 39.9998 40.355 39.9998 38.666Z" stroke="var(--color-14)" stroke-width="3" stroke-linecap="round"/>
</svg>
