<svg width="20" height="20" viewBox="0 0 20 20" fill="none" xmlns="http://www.w3.org/2000/svg">
<path d="M14.167 7.91618L14.7156 7.64186C16.3372 6.83107 17.148 6.42568 17.7408 6.79207C18.3337 7.15847 18.3337 8.06495 18.3337 9.87793V10.1211C18.3337 11.9341 18.3337 12.8406 17.7408 13.2069C17.148 13.5733 16.3372 13.1679 14.7156 12.3572L14.167 12.0828V7.91618Z" stroke="var(--icon-color-2)" stroke-width="1.5"/>
<path d="M11.3009 6.2001C11.789 6.68826 11.789 7.47971 11.3009 7.96787C10.8127 8.45602 10.0213 8.45602 9.53311 7.96787C9.04495 7.47971 9.04495 6.68826 9.53311 6.2001C10.0213 5.71195 10.8127 5.71195 11.3009 6.2001Z" stroke="var(--icon-color-2)" stroke-width="1.5"/>
<path d="M1.66699 9.58398C1.66699 6.84442 1.66699 5.47463 2.42362 4.55267C2.56214 4.38389 2.7169 4.22913 2.88568 4.09062C3.80764 3.33398 5.17742 3.33398 7.91699 3.33398C10.6566 3.33398 12.0263 3.33398 12.9483 4.09062C13.1171 4.22913 13.2718 4.38389 13.4104 4.55267C14.167 5.47463 14.167 6.84442 14.167 9.58398V10.4173C14.167 13.1569 14.167 14.5267 13.4104 15.4486C13.2718 15.6174 13.1171 15.7722 12.9483 15.9107C12.0263 16.6673 10.6566 16.6673 7.91699 16.6673C5.17742 16.6673 3.80764 16.6673 2.88568 15.9107C2.7169 15.7722 2.56214 15.6174 2.42362 15.4486C1.66699 14.5267 1.66699 13.1569 1.66699 10.4173V9.58398Z" stroke="var(--icon-color-2)" stroke-width="1.5"/>
</svg>
