<svg width="32" height="32" viewBox="0 0 32 32" fill="none" xmlns="http://www.w3.org/2000/svg">
<g clip-path="url(#clip0_4314_61729)">
<path d="M32 16C32 7.16344 24.8366 0 16 0C7.16344 0 0 7.16344 0 16C0 24.8366 7.16344 32 16 32C24.8366 32 32 24.8366 32 16Z" fill="#FC3F1D"/>
<path d="M18.3593 8.96058H16.74C13.9642 8.96058 12.5762 10.3485 12.5762 12.4305C12.5762 14.7437 13.5015 15.9004 15.5834 17.2883L17.2027 18.4449L12.5762 25.616H8.875L13.2702 19.1389C10.7256 17.2883 9.33762 15.669 9.33762 12.6618C9.33762 8.96058 11.8822 6.41602 16.74 6.41602H21.5979V25.616H18.3593V8.96058Z" fill="white"/>
</g>
<defs>
<clipPath id="clip0_4314_61729">
<rect width="32" height="32" fill="white"/>
</clipPath>
</defs>
</svg>
